<?xml version="1.0" standalone="no"?>
<!-- Generator: Adobe Fireworks 10, Export SVG Extension by Aaron Beall (http://fireworks.abeall.com) . Version: 0.6.1  -->
<!DOCTYPE svg PUBLIC "-//W3C//DTD SVG 1.1//EN" "http://www.w3.org/Graphics/SVG/1.1/DTD/svg11.dtd">
<svg id="Untitled-page%201" viewBox="0 0 135 311" style="background-color:#ffffff00" version="1.1"
	xmlns="http://www.w3.org/2000/svg" xmlns:xlink="http://www.w3.org/1999/xlink" xml:space="preserve"
	x="0px" y="0px" width="135px" height="311px"
>
	<g id="Calque%201">
		<g>
			<path d="M 53.3398 295.9166 C 82.678 295.9166 106.47 299.1613 106.47 303.1603 C 106.47 307.1614 82.678 310.4066 53.3398 310.4066 C 24.002 310.4066 0.21 307.1614 0.21 303.1603 C 0.21 299.1613 24.002 295.9166 53.3398 295.9166 L 53.3398 295.9166 Z" fill="#94c73a"/>
			<path d="M 102.037 226.0062 L 13.099 226.0062 L 13.099 140.5929 L 102.037 140.5929 L 102.037 226.0062 Z" fill="#4070bf"/>
			<g>
				<g>
					<path d="M 13.2334 225.5776 C 13.693 235.3826 21.7964 243.1929 31.7281 243.1929 L 83.2246 243.1929 C 93.1575 243.1929 101.2607 235.3826 101.7205 225.5776 L 13.2334 225.5776 Z" fill="#2d3640"/>
				</g>
				<g>
					<path d="M 34.5177 308.0515 C 38.1385 308.0515 41.0748 305.1199 41.0748 301.503 L 41.0748 239.6233 C 41.0748 236.0064 38.1385 233.0747 34.5177 233.0747 C 30.8965 233.0747 27.9607 236.0064 27.9607 239.6233 L 27.9607 301.503 C 27.9607 305.1199 30.8965 308.0515 34.5177 308.0515 Z" fill="#2d3640"/>
					<g>
						<g>
							<path d="M 49.3302 305.5839 C 49.3302 300.8669 45.5007 297.0416 40.7775 297.0416 L 35.2662 297.0416 C 30.543 297.0416 26.714 300.8669 26.714 305.5839 L 26.714 308.3365 L 49.3302 308.3365 L 49.3302 305.5839 Z" fill="#222930"/>
						</g>
						<path d="M 50.7141 306.6996 C 50.7141 307.6037 49.9263 308.3365 48.9553 308.3365 L 27.0886 308.3365 C 26.118 308.3365 25.3306 307.6037 25.3306 306.6996 L 25.3306 306.6996 C 25.3306 305.7952 26.118 305.0623 27.0886 305.0623 L 48.9553 305.0623 C 49.9263 305.0623 50.7141 305.7952 50.7141 306.6996 L 50.7141 306.6996 Z" fill="#1a1f24"/>
					</g>
				</g>
				<g>
					<path d="M 78.9893 308.0515 C 82.61 308.0515 85.5458 305.1199 85.5458 301.503 L 85.5458 239.6233 C 85.5458 236.0064 82.61 233.0747 78.9893 233.0747 C 75.3684 233.0747 72.4326 236.0064 72.4326 239.6233 L 72.4326 301.503 C 72.4326 305.1199 75.3684 308.0515 78.9893 308.0515 Z" fill="#2d3640"/>
					<g>
						<g>
							<path d="M 93.8018 305.5839 C 93.8018 300.8669 89.9722 297.0416 85.2495 297.0416 L 79.7378 297.0416 C 75.015 297.0416 71.1855 300.8669 71.1855 305.5839 L 71.1855 308.3365 L 93.8018 308.3365 L 93.8018 305.5839 Z" fill="#222930"/>
						</g>
						<path d="M 95.1846 306.6996 C 95.1846 307.6037 94.3977 308.3365 93.4268 308.3365 L 71.5601 308.3365 C 70.589 308.3365 69.8021 307.6037 69.8021 306.6996 L 69.8021 306.6996 C 69.8021 305.7952 70.589 305.0623 71.5601 305.0623 L 93.4268 305.0623 C 94.3977 305.0623 95.1846 305.7952 95.1846 306.6996 L 95.1846 306.6996 Z" fill="#1a1f24"/>
					</g>
				</g>
			</g>
		</g>
		<g>
			<path d="M 92.4768 8.3088 L 42.4375 4.66 C 25.1642 3.4002 10.1401 16.3647 8.8787 33.6155 L 8.7006 36.0624 C 8.6006 36.3655 8.5327 36.6823 8.5085 37.0134 L 6.5439 63.896 C 6.5188 64.2275 6.541 64.5503 6.5951 64.8643 L 3.0668 113.1268 C 1.8059 130.3769 14.7852 145.384 32.058 146.6434 L 82.0981 150.2922 C 99.3705 151.5521 114.394 138.5873 115.656 121.3367 L 120.3517 57.1069 L 121.4689 41.8262 C 122.7292 24.5746 109.749 9.5687 92.4768 8.3088 Z" fill="#ffbf7f"/>
			<g>
				<path d="M 124.7225 38.9975 C 126.0204 21.2397 112.6593 5.7916 94.8781 4.4951 L 43.3662 0.7384 C 25.587 -0.558 10.1195 12.7879 8.8215 30.5462 L 8.6371 33.0662 C 8.5356 33.3773 8.4653 33.7037 8.4402 34.0442 L 8.1409 38.1383 L 124.1669 46.5992 L 124.7225 38.9975 Z" fill="#403020"/>
			</g>
			<path d="M 14.1418 61.6036 C 13.981 63.8004 12.0698 65.4495 9.8708 65.289 L 9.8708 65.289 C 7.6725 65.129 6.0212 63.2196 6.1816 61.0231 L 8.1469 34.141 C 8.3079 31.946 10.2194 30.2951 12.4178 30.4556 L 12.4178 30.4556 C 14.6157 30.6158 16.267 32.5265 16.1071 34.7215 L 14.1418 61.6036 Z" fill="#403020"/>
			<path d="M 134.5579 18.4631 L 124.2274 46.2514 L 115.0836 37.9758 L 134.5579 18.4631 Z" fill="#403020"/>
			<path d="M 128.675 10.393 L 120.9611 40.7863 L 109.2004 29.907 L 128.675 10.393 Z" fill="#403020"/>
			<g>
				<path d="M 67.9855 113.606 C 80.0995 114.4893 89.2019 125.0135 88.3181 137.1122 L 44.4524 133.9136 C 45.3374 121.8145 55.8726 112.7227 67.9855 113.606 Z" fill="#b54a43"/>
			</g>
		</g>
	</g>
</svg>