<?xml version="1.0" standalone="no"?>
<!-- Generator: Adobe Fireworks 10, Export SVG Extension by Aaron Beall (http://fireworks.abeall.com) . Version: 0.6.1  -->
<!DOCTYPE svg PUBLIC "-//W3C//DTD SVG 1.1//EN" "http://www.w3.org/Graphics/SVG/1.1/DTD/svg11.dtd">
<svg id="Untitled-page%201" viewBox="0 0 138 213" style="background-color:#ffffff00" version="1.1"
	xmlns="http://www.w3.org/2000/svg" xmlns:xlink="http://www.w3.org/1999/xlink" xml:space="preserve"
	x="0px" y="0px" width="138px" height="213px"
>
	<g id="Calque%201">
		<path d="M 68.6449 194.4666 C 106.5557 194.4666 137.3 198.6384 137.3 203.7799 C 137.3 208.9243 106.5557 213.0966 68.6449 213.0966 C 30.7341 213.0966 -0.01 208.9243 -0.01 203.7799 C -0.01 198.6384 30.7341 194.4666 68.6449 194.4666 L 68.6449 194.4666 Z" fill="#94c73a"/>
		<path d="M 130.2578 128.1072 L 130.2588 128.1072 C 134.0112 128.1072 137.0791 131.176 137.0791 134.9264 L 137.0791 162.2516 C 137.0791 166.002 134.01 169.0708 130.2588 169.0708 L 130.2578 169.0708 C 126.5071 169.0708 123.438 166.0031 123.438 162.2516 L 123.438 134.9264 C 123.438 131.1749 126.5061 128.1072 130.2578 128.1072 Z" fill="#333333"/>
		<path d="M 52.223 177.329 L 52.2241 177.329 C 55.9761 177.329 59.0442 180.3967 59.0442 184.1482 L 59.0442 200.678 C 59.0442 204.4295 55.9761 207.4973 52.2241 207.4973 L 52.223 207.4973 C 48.4709 207.4973 45.403 204.4295 45.403 200.678 L 45.403 184.1482 C 45.403 180.3967 48.4709 177.329 52.223 177.329 Z" fill="#000000"/>
		<path d="M 109.6389 177.329 L 109.6399 177.329 C 113.3922 177.329 116.4602 180.3967 116.4602 184.1482 L 116.4602 200.678 C 116.4602 204.4295 113.3922 207.4973 109.6399 207.4973 L 109.6389 207.4973 C 105.8871 207.4973 102.8191 204.4295 102.8191 200.678 L 102.8191 184.1482 C 102.8191 180.3967 105.8871 177.329 109.6389 177.329 Z" fill="#000000"/>
		<path d="M 42.8657 64.2793 L 109.7986 64.2793 C 122.1869 64.2793 132.3204 74.8433 132.3204 87.7569 L 132.3204 166.8719 C 132.3204 179.7856 122.1869 190.3492 109.7986 190.3492 L 42.8657 190.3492 C 30.4774 190.3492 20.3435 179.7856 20.3435 166.8719 L 20.3435 87.7569 C 20.3435 74.8433 30.4774 64.2793 42.8657 64.2793 L 42.8657 64.2793 Z" fill="#000000"/>
		<path d="M 132.3182 132.1964 L 132.3182 151.5812 L 20.3453 151.5812 L 20.3453 132.1964 L 132.3182 132.1964 Z" fill="#febd1b"/>
		<path d="M 131.9583 170.965 C 130.0862 181.9417 120.8427 190.3492 109.7964 190.3492 L 42.8667 190.3492 C 31.8201 190.3492 22.5768 181.9417 20.7049 170.965 L 131.9578 170.965 L 131.9583 170.965 Z" fill="#febd1b"/>
		<path d="M 88.5181 67.2066 C 88.6289 68.3066 87.825 69.3005 86.7255 69.4117 C 85.6254 69.5227 84.6313 68.7191 84.5199 67.6191 C 84.5095 67.471 79.2588 13.1889 90.7971 3.8775 C 94.8582 0.5991 99.4956 -0.0142 103.615 1.0645 C 105.9731 1.6778 108.1733 2.8729 109.9766 4.4167 L 109.9869 4.4273 C 111.7957 5.9872 113.2546 7.9436 114.1221 10.1063 C 115.4917 13.5114 115.4229 17.4084 113.1172 21.0516 L 113.1123 21.062 L 113.1172 21.062 L 113.1069 21.078 L 113.0381 21.1995 C 110.426 25.234 106.8936 26.889 103.4719 26.9418 C 101.6952 26.9736 99.9448 26.5612 98.396 25.8262 L 98.3851 25.8209 L 98.3851 25.8262 C 96.8514 25.0965 95.4612 24.0231 94.3979 22.7488 L 94.3713 22.7066 L 94.3291 22.6537 L 94.2979 22.6113 C 92.3358 20.179 91.4685 16.9906 92.5735 13.7917 L 92.5735 13.7864 C 96.3334 2.9839 104.8735 10.5821 104.8893 10.5981 C 105.6721 11.3806 105.6721 12.6602 104.8893 13.4426 C 104.1064 14.2253 102.8271 14.2253 102.0444 13.4426 C 102.0389 13.4373 98.147 9.9951 96.3707 15.1082 C 95.7573 16.9007 96.2966 18.7303 97.4702 20.1526 L 97.486 20.1684 C 98.179 20.9987 99.0939 21.7019 100.1198 22.1882 L 100.1198 22.1935 C 101.1403 22.6695 102.2717 22.9392 103.4087 22.9232 C 105.6089 22.8863 107.9351 21.723 109.7227 18.9048 L 109.7275 18.91 C 111.2559 16.4831 111.309 13.8815 110.3887 11.5972 C 109.7704 10.0533 108.7017 8.6257 107.364 7.473 C 106.0051 6.3097 104.3604 5.4108 102.6101 4.9561 C 99.6331 4.1788 96.2646 4.6283 93.3141 7.0077 C 83.4307 14.9867 88.5072 67.0639 88.5181 67.2066 L 88.5181 67.2066 Z" fill="#000000"/>
		<path d="M 66.7053 67.2066 C 66.5942 68.3066 67.3982 69.3005 68.4978 69.4117 C 69.5979 69.5227 70.5918 68.7191 70.7029 67.6191 C 70.7136 67.471 75.9645 13.1889 64.426 3.8775 C 60.3651 0.5991 55.7275 -0.0142 51.6083 1.0645 C 49.2498 1.6778 47.05 2.8729 45.2468 4.4167 L 45.2362 4.4273 C 43.4277 5.9872 41.9685 7.9436 41.1012 10.1063 C 39.7314 13.5114 39.8003 17.4084 42.106 21.0516 L 42.1111 21.062 L 42.106 21.062 L 42.1162 21.078 L 42.1851 21.1995 C 44.7975 25.234 48.3296 26.889 51.7512 26.9418 C 53.5278 26.9736 55.2781 26.5612 56.8274 25.8262 L 56.8379 25.8209 L 56.8379 25.8262 C 58.3717 25.0965 59.7622 24.0231 60.8252 22.7488 L 60.8518 22.7066 L 60.894 22.6537 L 60.9257 22.6113 C 62.8873 20.179 63.7548 16.9906 62.6497 13.7917 L 62.6497 13.7864 C 58.8899 2.9839 50.3499 10.5821 50.3339 10.5981 C 49.5513 11.3806 49.5513 12.6602 50.3339 13.4426 C 51.1165 14.2253 52.3962 14.2253 53.1787 13.4426 C 53.1842 13.4373 57.0759 9.9951 58.8528 15.1082 C 59.4661 16.9007 58.9269 18.7303 57.7529 20.1526 L 57.7369 20.1684 C 57.0442 20.9987 56.1294 21.7019 55.1036 22.1882 L 55.1036 22.1935 C 54.0829 22.6695 52.9514 22.9392 51.8145 22.9232 C 49.6147 22.8863 47.2881 21.723 45.5007 18.9048 L 45.4954 18.91 C 43.9673 16.4831 43.9142 13.8815 44.8345 11.5972 C 45.4531 10.0533 46.5212 8.6257 47.8591 7.473 C 49.218 6.3097 50.8628 5.4108 52.613 4.9561 C 55.5901 4.1788 58.9585 4.6283 61.9093 7.0077 C 71.7926 14.9867 66.7161 67.0639 66.7053 67.2066 L 66.7053 67.2066 Z" fill="#000000"/>
	</g>
</svg>