<?xml version="1.0" standalone="no"?>
<!-- Generator: Adobe Fireworks 10, Export SVG Extension by Aaron Beall (http://fireworks.abeall.com) . Version: 0.6.1  -->
<!DOCTYPE svg PUBLIC "-//W3C//DTD SVG 1.1//EN" "http://www.w3.org/Graphics/SVG/1.1/DTD/svg11.dtd">
<svg id="Untitled-page%201" viewBox="0 0 51 110" style="background-color:#ffffff00" version="1.1"
	xmlns="http://www.w3.org/2000/svg" xmlns:xlink="http://www.w3.org/1999/xlink" xml:space="preserve"
	x="0px" y="0px" width="51px" height="110px"
>
	<g id="Calque%201">
		<g>
			<path d="M 17.4963 20.6767 C 12.0166 38.472 12.0605 54.1415 17.6255 67.3868 C 26.4487 88.384 46.6279 96.5146 46.9238 96.6332 C 50.2554 97.9356 51.8569 101.6416 50.5359 104.9615 C 49.2148 108.2849 45.4493 109.9468 42.1226 108.6769 C 42.063 108.6551 41.9286 108.6026 41.7222 108.5171 C 38.3524 107.139 16.1281 97.2573 5.6587 72.7025 C -1.2593 56.4784 -1.4995 37.69 4.9573 16.6972 L 17.4963 20.6767 Z" fill="#ffbf7f"/>
			<path d="M 21.1219 94.7912 C 30.3676 103.5715 39.6399 107.6655 41.7222 108.5171 L 42.1226 108.6769 C 45.4493 109.9468 49.2148 108.2849 50.5359 104.9615 C 51.8569 101.6416 50.2554 97.9356 46.9238 96.6332 C 46.7192 96.5512 37.0199 92.6449 28.1401 83.3177 L 21.1219 94.7912 Z" fill="#4070bf"/>
			<path d="M 9.4987 4.1624 C 10.9061 0.7749 14.7728 -0.8302 18.1292 0.5779 C 21.4856 1.9847 23.0605 5.8687 21.6499 9.2491 C 20.0217 13.1501 18.6407 16.9596 17.4963 20.6767 L 4.9573 16.6972 C 6.2179 12.6015 7.7285 8.4226 9.4987 4.1624 Z" fill="#ffbf7f"/>
			<path d="M 11.5371 14.4467 C 11.3489 14.815 11.2542 15.2386 11.2888 15.6806 C 11.3845 16.9468 12.4843 17.891 13.743 17.7903 L 23.1354 17.0389 C 24.3949 16.9399 25.3398 15.8314 25.2463 14.5644 C 25.1528 13.2964 24.0591 12.3521 22.7953 12.4525 L 13.3989 13.2037 C 12.5796 13.2672 11.8914 13.7608 11.5371 14.4467 Z" fill="#ffbf7f"/>
		</g>
	</g>
</svg>