<?xml version="1.0" standalone="no"?>
<!-- Generator: Adobe Fireworks 10, Export SVG Extension by Aaron Beall (http://fireworks.abeall.com) . Version: 0.6.1  -->
<!DOCTYPE svg PUBLIC "-//W3C//DTD SVG 1.1//EN" "http://www.w3.org/Graphics/SVG/1.1/DTD/svg11.dtd">
<svg id="Untitled-page%201" viewBox="0 0 246 196" style="background-color:#ffffff00" version="1.1"
	xmlns="http://www.w3.org/2000/svg" xmlns:xlink="http://www.w3.org/1999/xlink" xml:space="preserve"
	x="0px" y="0px" width="246px" height="196px"
>
	<g id="Calque%201">
		<g>
			<path d="M 91.9374 158.1476 C 79.6615 171.975 66.254 180.0522 51.9683 182.1905 C 29.1985 185.5969 11.4497 172.5393 11.1885 172.3466 C 8.2861 170.1626 4.2061 170.722 2.0127 173.5912 C -0.1838 176.4659 0.3694 180.5742 3.2479 182.768 C 3.2981 182.8084 3.4158 182.8973 3.5989 183.0301 C 6.5936 185.2027 26.9744 199.0818 53.6942 195.1754 C 71.2367 192.6114 87.3864 183.0595 101.8362 166.7439 L 91.9374 158.1476 Z" fill="#ffbf7f"/>
			<path d="M 29.3276 180.6794 C 18.432 177.6769 11.3528 172.4678 11.1885 172.3466 C 8.2861 170.1626 4.2061 170.722 2.0127 173.5912 C -0.1838 176.4659 0.3694 180.5742 3.2479 182.768 L 3.5989 183.0301 C 5.4692 184.3869 14.1227 190.309 26.8644 193.6135 L 29.3276 180.6794 Z" fill="#4070bf"/>
			<path d="M 110.0729 156.4596 C 112.202 153.5348 111.5514 149.4387 108.6226 147.3142 C 105.6927 145.1873 101.5911 145.8366 99.464 148.7624 C 97.0061 152.1418 94.4961 155.2681 91.9374 158.1476 L 101.8362 166.7439 C 104.6464 163.5704 107.3936 160.1453 110.0729 156.4596 Z" fill="#ffbf7f"/>
			<g>
				<path d="M 96.5514 156.8877 C 94.4312 160.7616 95.8574 165.6192 99.7371 167.7368 L 101.6097 168.7592 C 105.489 170.8759 110.3524 169.4513 112.4718 165.5774 L 144.2021 107.5851 C 146.3219 103.711 144.8956 98.8537 141.0165 96.7364 L 139.1433 95.7144 C 135.2645 93.5972 130.4011 95.0218 128.2814 98.896 L 96.5514 156.8877 Z" fill="#d8410f"/>
				<path d="M 116.6462 119.7857 L 132.3416 128.8743 L 135.4325 123.5498 L 119.7369 114.4615 L 116.6462 119.7857 Z" fill="#a3320c"/>
				<g>
					<path d="M 49.9886 70.1027 C 47.9192 73.9322 49.535 78.8133 53.5972 81.0039 L 198.2574 159.002 C 202.3202 161.1923 207.2915 159.8627 209.3611 156.0339 L 244.8585 90.3599 C 246.9285 86.5307 245.3127 81.6508 241.2505 79.4607 L 96.5908 1.4624 C 92.5275 -0.7282 87.5557 0.5997 85.4857 4.4294 L 49.9886 70.1027 Z" fill="#d8410f"/>
				</g>
				<path d="M 106.1888 157.0967 C 106.3502 157.4732 106.4142 157.8974 106.3473 158.3315 C 106.1617 159.5751 105.0027 160.4323 103.7576 160.2475 L 94.4716 158.8687 C 93.2244 158.6834 92.3661 157.5243 92.5511 156.2797 C 92.7377 155.0351 93.8951 154.1778 95.1438 154.3626 L 104.4285 155.7434 C 105.238 155.8628 105.8861 156.3967 106.1888 157.0967 Z" fill="#ffbf7f"/>
			</g>
		</g>
		<g>
			<path d="M 110.7925 41.1434 L 124.8699 48.9467 L 126.816 45.4355 L 118.0177 40.5584 L 119.9639 37.0471 L 127.8824 41.4365 L 129.8286 37.9253 L 121.9102 33.5359 L 123.8563 30.0247 L 132.6547 34.9017 L 134.6008 31.3905 L 120.5234 23.5872 L 110.7925 41.1434 L 110.7925 41.1434 Z" fill="#ffffff"/>
			<path d="M 132.7885 53.3361 L 136.6808 46.3136 L 137.2031 46.6031 C 137.7256 46.8927 138.1307 47.2966 138.4261 47.8011 C 138.6146 48.1744 138.7288 48.8115 138.7473 49.7183 L 138.5211 56.5138 L 144.2262 59.6763 L 144.4382 53.3928 C 144.459 53.0636 144.4381 52.55 144.3682 51.8658 C 144.2844 51.1739 144.198 50.7136 144.1105 50.45 C 143.9573 50.0781 143.6389 49.6148 143.177 49.054 C 143.9495 49.249 144.6149 49.3131 145.1594 49.2384 C 146.0076 49.1348 146.7943 48.8178 147.5471 48.3027 C 148.2861 47.78 148.9286 47.0424 149.476 46.0549 C 150.0994 44.9302 150.3627 43.839 150.2949 42.7616 C 150.2059 41.6902 149.8287 40.7819 149.1636 40.0366 C 148.4846 39.2837 147.3584 38.4622 145.7775 37.5859 L 137.2404 32.8536 L 127.5094 50.4098 L 132.7885 53.3361 L 132.7885 53.3361 ZM 140.5731 39.2911 L 142.6903 40.4647 C 143.5701 40.9524 144.0776 41.4309 144.2404 41.9156 C 144.3893 42.3926 144.3186 42.9092 144.0144 43.4578 C 143.8016 43.8419 143.5016 44.1238 143.1494 44.3051 C 142.7836 44.4789 142.4236 44.5124 142.0693 44.4057 C 141.3457 44.2198 140.8816 44.0521 140.6616 43.9302 L 138.627 42.8023 L 140.5731 39.2911 L 140.5731 39.2911 Z" fill="#ffffff"/>
			<path d="M 151.2649 63.5779 L 155.1573 56.5555 L 155.6797 56.845 C 156.2021 57.1346 156.6073 57.5385 156.9027 58.0429 C 157.0912 58.4163 157.2053 59.0533 157.2239 59.9601 L 156.9976 66.7556 L 162.7028 69.9181 L 162.9148 63.6347 C 162.9355 63.3055 162.9147 62.7919 162.8446 62.1076 C 162.7609 61.4157 162.6746 60.9555 162.587 60.6918 C 162.4337 60.3199 162.1155 59.8567 161.6536 59.2958 C 162.426 59.4909 163.0914 59.5549 163.636 59.4803 C 164.4841 59.3766 165.2709 59.0597 166.0237 58.5446 C 166.7626 58.0219 167.405 57.2843 167.9524 56.2968 C 168.5758 55.1721 168.8392 54.0809 168.7715 53.0034 C 168.6824 51.932 168.3053 51.0237 167.6401 50.2785 C 166.9612 49.5256 165.835 48.7041 164.254 47.8278 L 155.7169 43.0955 L 145.986 60.6517 L 151.2649 63.5779 L 151.2649 63.5779 ZM 159.0497 49.533 L 161.1667 50.7065 C 162.0466 51.1942 162.5542 51.6728 162.7168 52.1574 C 162.8657 52.6344 162.795 53.1511 162.491 53.6997 C 162.2781 54.0837 161.978 54.3657 161.626 54.547 C 161.2601 54.7207 160.9 54.7542 160.5459 54.6476 C 159.8223 54.4616 159.358 54.2939 159.1382 54.172 L 157.1035 53.0442 L 159.0497 49.533 L 159.0497 49.533 Z" fill="#ffffff"/>
			<path d="M 166.802 67.2238 C 166.8146 68.952 167.2371 70.4593 168.0986 71.7257 C 168.9464 72.9846 170.2914 74.1246 172.1061 75.1305 C 173.8932 76.1212 175.5817 76.6089 177.1868 76.5663 C 178.7782 76.516 180.2466 76.0391 181.5784 75.1277 C 182.9102 74.2164 184.1311 72.7595 185.2334 70.7707 C 186.7462 68.0413 187.196 65.5114 186.5826 63.1812 C 185.9617 60.8647 184.3253 58.9536 181.6445 57.4676 C 179.0188 56.0121 176.5371 55.6584 174.2284 56.3869 C 171.8983 57.1214 169.9762 58.8708 168.4406 61.6414 C 167.3381 63.6302 166.7894 65.4956 166.802 67.2238 L 166.802 67.2238 ZM 176.787 60.9788 C 177.7931 60.4606 178.7635 60.4607 179.6846 60.9712 C 180.6469 61.5047 181.1749 62.3353 181.2976 63.4432 C 181.399 64.5573 180.9807 65.9929 180.0151 67.7347 C 178.8672 69.8058 177.7941 71.0936 176.817 71.5919 C 175.8398 72.0902 174.8633 72.0688 173.8872 71.5278 C 172.9387 71.002 172.4031 70.1851 172.3093 69.0573 C 172.2156 67.9296 172.6855 66.433 173.7195 64.5677 C 174.761 62.6886 175.781 61.4969 176.787 60.9788 L 176.787 60.9788 Z" fill="#ffffff"/>
			<path d="M 189.0978 84.5493 L 192.9902 77.5269 L 193.5126 77.8164 C 194.035 78.106 194.4402 78.5099 194.7356 79.0143 C 194.9241 79.3877 195.0382 80.0247 195.0568 80.9315 L 194.8306 87.7271 L 200.5356 90.8895 L 200.7477 84.6061 C 200.7684 84.2769 200.7476 83.7633 200.6776 83.079 C 200.5938 82.3871 200.5074 81.9269 200.4199 81.6632 C 200.2666 81.2914 199.9484 80.8281 199.4865 80.2672 C 200.2589 80.4623 200.9243 80.5263 201.4689 80.4517 C 202.317 80.3481 203.1038 80.0311 203.8566 79.516 C 204.5956 78.9933 205.238 78.2557 205.7854 77.2682 C 206.4087 76.1435 206.6721 75.0523 206.6044 73.9748 C 206.5153 72.9034 206.1382 71.9951 205.473 71.2499 C 204.7941 70.497 203.6678 69.6755 202.0869 68.7992 L 193.5498 64.0669 L 183.8188 81.6231 L 189.0978 84.5493 L 189.0978 84.5493 ZM 196.8826 70.5044 L 198.9998 71.6779 C 199.8795 72.1656 200.3871 72.6442 200.5498 73.1288 C 200.6987 73.6058 200.6279 74.1225 200.3239 74.6711 C 200.1111 75.0551 199.811 75.3371 199.4589 75.5184 C 199.093 75.6921 198.733 75.7257 198.3788 75.619 C 197.6552 75.433 197.191 75.2654 196.9711 75.1434 L 194.9364 74.0156 L 196.8826 70.5044 L 196.8826 70.5044 Z" fill="#ffffff"/>
		</g>
	</g>
</svg>