<?xml version="1.0" standalone="no"?>
<!-- Generator: Adobe Fireworks 10, Export SVG Extension by Aaron Beall (http://fireworks.abeall.com) . Version: 0.6.1  -->
<!DOCTYPE svg PUBLIC "-//W3C//DTD SVG 1.1//EN" "http://www.w3.org/Graphics/SVG/1.1/DTD/svg11.dtd">
<svg id="Untitled-page%201" viewBox="0 0 42 13" style="background-color:#ffffff00" version="1.1"
	xmlns="http://www.w3.org/2000/svg" xmlns:xlink="http://www.w3.org/1999/xlink" xml:space="preserve"
	x="0px" y="0px" width="42px" height="13px"
>
	<g id="Calque%201">
		<path d="M 42.4069 6.6691 C 42.4069 4.8782 37.2324 3.4264 30.849 3.4264 C 28.0461 3.4264 25.4777 3.7065 23.4767 4.1723 C 23.5635 3.8181 23.6176 3.4396 23.6176 3.0396 C 23.6176 1.2332 22.649 -0.2318 21.4543 -0.2318 C 20.2597 -0.2318 19.2916 1.2332 19.2916 3.0396 C 19.2916 3.2345 19.3077 3.4235 19.3297 3.6091 C 18.6178 3.4932 17.8514 3.4264 17.0476 3.4264 C 13.4189 3.4264 10.4777 4.718 10.4777 6.3115 C 10.4777 6.6862 10.6453 7.0428 10.9415 7.3711 C 4.5694 7.83 0.167 8.7937 0.167 9.9117 C 0.167 11.4731 8.7291 12.7388 19.2916 12.7388 C 29.8537 12.7388 38.4158 11.4731 38.4158 9.9117 C 38.4158 9.6813 38.2087 9.4582 37.856 9.2438 C 40.6179 8.6509 42.4069 7.7199 42.4069 6.6691 Z" fill="#ffffff"/>
	</g>
</svg>