<?xml version="1.0" standalone="no"?>
<!-- Generator: Adobe Fireworks 10, Export SVG Extension by Aaron Beall (http://fireworks.abeall.com) . Version: 0.6.1  -->
<!DOCTYPE svg PUBLIC "-//W3C//DTD SVG 1.1//EN" "http://www.w3.org/Graphics/SVG/1.1/DTD/svg11.dtd">
<svg id="Untitled-page%201" viewBox="0 0 152 90" style="background-color:#ffffff00" version="1.1"
	xmlns="http://www.w3.org/2000/svg" xmlns:xlink="http://www.w3.org/1999/xlink" xml:space="preserve"
	x="0px" y="0px" width="152px" height="90px"
>
	<g id="Calque%201">
		<path d="M 125.9459 37.0191 C 125.212 37.0191 124.4885 37.0712 123.771 37.1316 C 122.5903 35.3135 120.9602 33.8444 119.0659 32.7874 C 120.692 29.6814 121.6274 26.1515 121.6274 22.4009 C 121.6274 10.0445 111.625 0.0266 99.2896 0.0266 C 90.2081 0.0266 82.4115 5.4609 78.9207 13.2535 C 78.2638 13.2182 77.6149 13.1537 76.9518 13.1537 C 61.9218 13.1537 48.9939 22.0251 43.0018 34.8064 C 38.8895 28.258 31.6335 23.8931 23.3419 23.8931 C 10.5118 23.8931 0.11 34.3129 0.11 47.164 C 0.11 60.0162 10.5118 70.4339 23.3419 70.4339 C 26.1238 70.4339 28.7788 69.9165 31.2509 69.0209 C 31.1843 69.528 31.0825 70.0279 31.0825 70.5557 C 31.0825 77.6279 37.1868 83.3622 44.7152 83.3622 C 48.1459 83.3622 51.2435 82.1314 53.6407 80.1666 C 60.0444 85.2634 68.1364 88.3332 76.9518 88.3332 C 87.1746 88.3332 96.4309 84.2254 103.1982 77.5863 C 107.8784 85.2708 116.3008 90.4166 125.9459 90.4166 C 140.6659 90.4166 152.6 78.4641 152.6 63.7179 C 152.6 48.9758 140.6659 37.0191 125.9459 37.0191 Z" fill="#ffffff"/>
	</g>
</svg>