<?xml version="1.0" standalone="no"?>
<!-- Generator: Adobe Fireworks 10, Export SVG Extension by Aaron Beall (http://fireworks.abeall.com) . Version: 0.6.1  -->
<!DOCTYPE svg PUBLIC "-//W3C//DTD SVG 1.1//EN" "http://www.w3.org/Graphics/SVG/1.1/DTD/svg11.dtd">
<svg id="cloud_01.fw-page%201" viewBox="0 0 197 73" style="background-color:#ffffff00" version="1.1"
	xmlns="http://www.w3.org/2000/svg" xmlns:xlink="http://www.w3.org/1999/xlink" xml:space="preserve"
	x="0px" y="0px" width="197px" height="73px"
>
	<g id="Calque%201">
		<path d="M 112.1932 0.1595 C 112.7387 0.1595 115.7389 0.7053 117.6481 0.9782 C 128.2852 3.1615 147.923 11.0759 151.4686 27.1776 C 158.2873 26.3589 159.1055 26.0859 163.4695 26.0859 C 172.7429 26.0859 197.29 30.4525 197.29 48.7375 C 197.29 66.7496 172.7429 71.3891 163.4695 71.3891 C 161.2875 71.3891 153.1051 70.2975 152.5596 70.0245 C 151.1959 69.7516 149.0139 68.9329 148.1957 68.9329 C 147.6502 68.9329 146.0137 70.0245 144.9228 70.2975 C 139.7405 72.2078 134.5583 73.0266 129.3762 73.0266 C 128.5579 73.0266 122.8303 72.4807 119.8301 71.9349 C 116.8299 71.3891 113.5569 70.2975 110.8294 68.9329 C 108.9202 68.1142 106.4656 65.658 105.6473 65.658 L 100.7379 65.658 C 97.1921 65.1121 90.3735 64.0205 89.828 64.0205 C 89.0098 64.0205 85.7368 66.4767 83.5548 67.0225 C 79.7364 68.1142 75.918 68.9329 72.0995 68.9329 C 67.1901 68.9329 61.7352 68.1142 56.8257 65.3851 C 56.2802 65.1121 55.462 65.658 54.6437 65.658 L 48.9161 65.658 C 45.6431 64.8392 41.0064 64.5663 38.0062 62.9289 C 35.8243 62.1101 32.824 59.9268 32.0058 59.9268 C 31.4603 59.9268 29.2784 61.5643 28.1874 62.3831 C 25.7327 63.7476 20.005 64.8392 17.2775 64.8392 C 13.1863 64.8392 0.64 62.6559 0.64 54.7415 C 0.64 46.2813 14.0045 44.6439 17.2775 44.6439 C 17.8231 44.6439 21.9142 45.1897 24.369 45.7355 C 24.6417 44.9168 24.9144 43.8251 24.9144 43.2793 C 26.8236 34.5462 41.2792 28.5421 47.5523 28.5421 L 56.0075 28.5421 C 56.2802 28.5421 57.3712 29.6338 57.6439 27.9963 C 58.1895 25.813 59.2804 22.2652 60.9169 20.0819 C 72.0995 3.9802 87.3733 1.2511 100.7379 -0.1134 C 108.9202 -0.1134 111.375 0.1595 112.1932 0.1595 Z" fill="#ffffff"/>
	</g>
</svg>