<?xml version="1.0" standalone="no"?>
<!-- Generator: Adobe Fireworks 10, Export SVG Extension by Aaron Beall (http://fireworks.abeall.com) . Version: 0.6.1  -->
<!DOCTYPE svg PUBLIC "-//W3C//DTD SVG 1.1//EN" "http://www.w3.org/Graphics/SVG/1.1/DTD/svg11.dtd">
<svg id="Untitled-page%201" viewBox="0 0 58 19" style="background-color:#ffffff00" version="1.1"
	xmlns="http://www.w3.org/2000/svg" xmlns:xlink="http://www.w3.org/1999/xlink" xml:space="preserve"
	x="0px" y="0px" width="58px" height="19px"
>
	<g id="Calque%201">
		<path d="M 42.0111 6.0804 C 40.2201 6.0804 38.5052 6.2027 36.9003 6.4185 C 36.912 6.2651 36.9247 6.1121 36.9247 5.9557 C 36.9247 2.4427 33.9585 -0.4049 30.3007 -0.4049 C 27.1826 -0.4049 24.5741 1.6671 23.8706 4.4537 C 23.4048 4.3763 22.9235 4.3344 22.4294 4.3344 C 19.9993 4.3344 17.8615 5.3214 16.6104 6.817 C 15.6008 6.3523 14.3906 6.0804 13.0869 6.0804 C 9.5673 6.0804 6.7144 8.0554 6.7144 10.4913 C 6.7144 11.3697 7.0894 12.1862 7.7296 12.8736 C 2.8986 13.4368 -0.2703 14.3732 -0.2703 15.4343 C -0.2703 17.1564 8.056 18.5522 18.3273 18.5522 C 24.1863 18.5522 29.4061 18.0972 32.8146 17.3869 C 35.4084 18.1176 38.5782 18.5522 42.0111 18.5522 C 50.7593 18.5522 57.851 15.7601 57.851 12.3163 C 57.851 8.8724 50.7593 6.0804 42.0111 6.0804 Z" fill="#ffffff"/>
	</g>
</svg>