<?xml version="1.0" standalone="no"?>
<!-- Generator: Adobe Fireworks 10, Export SVG Extension by Aaron Beall (http://fireworks.abeall.com) . Version: 0.6.1  -->
<!DOCTYPE svg PUBLIC "-//W3C//DTD SVG 1.1//EN" "http://www.w3.org/Graphics/SVG/1.1/DTD/svg11.dtd">
<svg id="Untitled-page%201" viewBox="0 0 91 41" style="background-color:#ffffff00" version="1.1"
	xmlns="http://www.w3.org/2000/svg" xmlns:xlink="http://www.w3.org/1999/xlink" xml:space="preserve"
	x="0px" y="0px" width="91px" height="41px"
>
	<g id="Calque%201">
		<path d="M 66.1892 30.4564 C 68.6243 28.5393 70.1531 25.8243 70.1531 22.8038 C 70.1531 18.4134 66.9385 14.6562 62.3764 13.0846 C 59.6257 5.3809 51.9083 -0.176 42.7987 -0.176 C 36.4271 -0.176 30.7327 2.5425 26.9423 6.8102 C 26.9315 6.8097 26.9208 6.8083 26.91 6.8083 C 22.8936 6.8083 19.6371 10.2789 19.6371 14.5607 C 19.6371 14.9802 19.677 15.3895 19.7375 15.7909 C 19.7034 15.7909 19.6713 15.788 19.6371 15.788 C 8.6157 15.788 -0.3187 20.9252 -0.3187 27.262 C -0.3187 33.5987 8.6157 38.7359 19.6371 38.7359 C 22.231 38.7359 24.7011 38.4427 26.9744 37.9248 C 32.9855 39.4102 43.9952 40.4055 56.5875 40.4055 C 75.6166 40.4055 91.0433 38.1334 91.0433 35.3306 C 91.0433 33.0184 80.5441 31.0688 66.1892 30.4564 Z" fill="#ffffff"/>
	</g>
</svg>