<?xml version="1.0" standalone="no"?>
<!-- Generator: Adobe Fireworks 10, Export SVG Extension by Aaron Beall (http://fireworks.abeall.com) . Version: 0.6.1  -->
<!DOCTYPE svg PUBLIC "-//W3C//DTD SVG 1.1//EN" "http://www.w3.org/Graphics/SVG/1.1/DTD/svg11.dtd">
<svg id="Untitled-page%201" viewBox="0 0 151 53" style="background-color:#ffffff00" version="1.1"
	xmlns="http://www.w3.org/2000/svg" xmlns:xlink="http://www.w3.org/1999/xlink" xml:space="preserve"
	x="0px" y="0px" width="151px" height="53px"
>
	<g id="Calque%201">
		<path d="M 127.5613 40.7832 C 128.4773 39.5769 128.9907 38.2586 128.9907 36.875 C 128.9907 31.1808 120.4424 26.5644 109.8973 26.5644 C 109.3176 26.5644 108.7466 26.5838 108.1796 26.6111 C 108.3618 25.5101 108.464 24.3857 108.464 23.2399 C 108.464 10.3813 96.6084 -0.0414 81.9826 -0.0414 C 70.6932 -0.0414 61.0593 6.1721 57.2504 14.9199 C 54.1225 13.8734 50.3574 13.2615 46.304 13.2615 C 35.4627 13.2615 26.6746 17.6324 26.6746 23.0245 C 26.6746 24.1119 27.0477 25.1555 27.7075 26.1317 C 11.81 27.225 -0.1722 32.0656 -0.1722 37.8727 C -0.1722 44.4847 15.3618 49.8456 34.5234 49.8456 C 45.2281 49.8456 54.7969 48.1717 61.1616 45.5419 C 65.522 48.1122 73.7314 49.8456 83.148 49.8456 C 85.5674 49.8456 87.9051 49.7286 90.1208 49.5153 C 95.1459 51.6745 106.0826 53.1711 118.7742 53.1711 C 136.2248 53.1711 150.3711 50.3425 150.3711 46.8524 C 150.3711 43.9722 140.7352 41.5441 127.5613 40.7832 Z" fill="#ffffff"/>
	</g>
</svg>