<?xml version="1.0" standalone="no"?>
<!-- Generator: Adobe Fireworks 10, Export SVG Extension by Aaron Beall (http://fireworks.abeall.com) . Version: 0.6.1  -->
<!DOCTYPE svg PUBLIC "-//W3C//DTD SVG 1.1//EN" "http://www.w3.org/Graphics/SVG/1.1/DTD/svg11.dtd">
<svg id="Untitled-page%201" viewBox="0 0 120 84" style="background-color:#ffffff00" version="1.1"
	xmlns="http://www.w3.org/2000/svg" xmlns:xlink="http://www.w3.org/1999/xlink" xml:space="preserve"
	x="0px" y="0px" width="120px" height="84px"
>
	<g id="Calque%201">
		<g>
			<path d="M 16.8337 38.7342 L 27.4315 44.6087 L 30.7858 38.5575 L 35.2015 41.0052 L 39.9933 32.3607 L 35.5775 29.9129 L 48.5154 6.5725 L 37.9175 0.6981 L 5.6403 13.1064 L 0.7585 21.9131 L 20.188 32.683 L 16.8337 38.7342 L 16.8337 38.7342 ZM 13.8575 17.8733 L 32.1599 11.0851 L 24.9797 24.0384 L 13.8575 17.8733 L 13.8575 17.8733 Z" fill="#ffffff"/>
			<path d="M 40.3536 37.6987 C 39.5453 40.3936 39.2285 42.69 39.4031 44.5879 C 39.6146 47.2654 40.4469 49.6691 41.9076 51.7854 C 43.3683 53.9017 45.7194 55.8759 49.0037 57.6964 C 54.8407 60.932 59.8289 61.6311 63.9681 59.7937 C 68.1074 57.9563 72.0781 53.6241 75.8667 46.7895 C 77.5513 43.7504 78.8035 40.6129 79.6432 37.4056 C 80.0792 35.7403 80.2937 34.1818 80.3005 32.7376 C 80.3073 31.2935 80.0496 29.7733 79.541 28.1848 C 79.0325 26.5963 78.1156 25.0286 76.7765 23.4741 C 75.4374 21.9196 73.4783 20.4098 70.8563 18.9565 C 65.4056 15.9351 60.5551 15.118 56.3044 16.5052 C 52.054 17.8925 47.959 22.1558 43.9983 29.3011 C 42.3811 32.2186 41.162 35.0037 40.3536 37.6987 L 40.3536 37.6987 ZM 61.215 26.1312 C 63.01 24.813 64.8289 24.6559 66.6642 25.6732 C 68.458 26.6676 69.3237 28.2952 69.2623 30.5213 C 69.1935 32.7609 67.7695 36.4036 64.9768 41.4418 C 63.0676 44.8861 61.453 47.3107 60.1682 48.7174 C 58.8834 50.1241 57.6173 50.9762 56.3701 51.2737 C 55.1229 51.5711 53.9409 51.3927 52.8232 50.7731 C 51.1121 49.8246 50.2878 48.22 50.3717 45.9534 C 50.4556 43.6867 51.8484 40.1327 54.5363 35.2837 C 57.1866 30.5021 59.4063 27.4417 61.215 26.1312 L 61.215 26.1312 Z" fill="#ffffff"/>
			<path d="M 87.486 77.8976 L 98.0839 83.7721 L 101.438 77.7209 L 105.8538 80.1686 L 110.6456 71.524 L 106.2299 69.0763 L 119.1676 45.7359 L 108.5697 39.8614 L 76.2925 52.2698 L 71.4109 61.0764 L 90.8402 71.8464 L 87.486 77.8976 L 87.486 77.8976 ZM 84.5098 57.0366 L 102.8121 50.2484 L 95.632 63.2018 L 84.5098 57.0366 L 84.5098 57.0366 Z" fill="#ffffff"/>
		</g>
	</g>
</svg>