<?xml version="1.0" standalone="no"?>
<!-- Generator: Adobe Fireworks 10, Export SVG Extension by Aaron Beall (http://fireworks.abeall.com) . Version: 0.6.1  -->
<!DOCTYPE svg PUBLIC "-//W3C//DTD SVG 1.1//EN" "http://www.w3.org/Graphics/SVG/1.1/DTD/svg11.dtd">
<svg id="Untitled-page%201" viewBox="0 0 120 84" style="background-color:#ffffff00" version="1.1"
	xmlns="http://www.w3.org/2000/svg" xmlns:xlink="http://www.w3.org/1999/xlink" xml:space="preserve"
	x="0px" y="0px" width="120px" height="84px"
>
	<g id="Calque%201">
		<path d="M 78.9773 62.0973 C 78.0585 64.6527 77.6091 66.8322 77.6483 68.631 C 77.6609 71.1659 78.2828 73.4401 79.4831 75.4513 C 80.6835 77.4625 82.7253 79.3355 85.6158 81.0585 C 90.757 84.1233 95.2977 84.7987 99.2214 83.0587 C 103.145 81.3188 107.0678 77.211 110.9897 70.7353 C 112.7336 67.8559 114.0936 64.8916 115.0625 61.8542 C 115.5707 60.2697 115.8727 58.7861 115.9731 57.4224 C 116.0617 56.0516 115.9322 54.6148 115.5729 53.1049 C 115.2065 51.6069 114.468 50.1109 113.3431 48.6406 C 112.2064 47.1632 110.4961 45.7277 108.198 44.3578 C 103.3885 41.4907 98.9734 40.7143 94.9908 42.0192 C 91.0082 43.3241 86.9598 47.3731 82.8599 54.1426 C 81.1943 56.8927 79.8962 59.5419 78.9773 62.0973 ZM 99.149 51.5521 C 100.7852 50.2881 102.3449 50.0821 103.7901 50.9437 C 105.1998 51.784 105.763 53.2234 105.4986 55.2572 C 105.2271 57.3028 103.6749 60.6643 100.8348 65.3536 C 98.8917 68.5621 97.307 70.8325 96.0879 72.1533 C 94.8617 73.4857 93.7069 74.301 92.6355 74.606 C 91.5569 74.9227 90.5804 74.8045 89.7038 74.282 C 88.3534 73.477 87.8329 72.047 88.1186 69.9779 C 88.4043 67.9088 89.9257 64.6249 92.6518 60.1236 C 95.3424 55.6812 97.5128 52.8161 99.149 51.5521 ZM 46.3769 42.6636 C 45.4581 45.219 45.0087 47.3985 45.0479 49.1973 C 45.0605 51.7321 45.6824 54.0064 46.8827 56.0176 C 48.0831 58.0288 50.1249 59.9018 53.0154 61.6248 C 58.1566 64.6896 62.6973 65.3649 66.6209 63.625 C 70.5446 61.8851 74.4674 57.7773 78.3893 51.3016 C 80.1332 48.4222 81.4932 45.4579 82.4621 42.4205 C 82.9703 40.836 83.2723 39.3524 83.3727 37.9887 C 83.4613 36.6179 83.3318 35.1811 82.9725 33.6712 C 82.6061 32.1732 81.8676 30.6772 80.7427 29.2069 C 79.606 27.7295 77.8957 26.294 75.5976 24.9241 C 70.788 22.057 66.373 21.2806 62.3904 22.5855 C 58.4078 23.8904 54.3594 27.9394 50.2595 34.7088 C 48.5939 37.459 47.2958 40.1082 46.3769 42.6636 ZM 66.5486 32.1184 C 68.1848 30.8544 69.7445 30.6484 71.1897 31.5099 C 72.5994 32.3503 73.1625 33.7897 72.8982 35.8235 C 72.6267 37.8691 71.0745 41.2306 68.2344 45.9199 C 66.2913 49.1283 64.7066 51.3988 63.4875 52.7196 C 62.2613 54.052 61.1065 54.8672 60.035 55.1723 C 58.9564 55.489 57.98 55.3708 57.1034 54.8483 C 55.753 54.0432 55.2324 52.6133 55.5182 50.5442 C 55.8039 48.4751 57.3253 45.1912 60.0514 40.6899 C 62.7419 36.2474 64.9124 33.3824 66.5486 32.1184 ZM 16.9581 18.1364 L 24.6903 24.1373 C 25.8685 23.8159 26.845 23.6942 27.639 23.7676 C 28.6865 23.8482 29.6604 24.1569 30.5371 24.6795 C 31.9112 25.4986 32.7566 26.5784 33.0805 27.9072 C 33.3972 29.2477 33.0147 30.8111 31.9256 32.6093 C 30.8579 34.3722 29.6272 35.446 28.2333 35.8308 C 26.8394 36.2155 25.5099 36.0148 24.2187 35.2451 C 23.0578 34.553 22.2786 33.5767 21.9073 32.2997 C 21.5289 31.0344 21.672 29.6001 22.3438 27.9851 L 11.8757 23.1205 C 11.2961 25.1424 10.994 26.9457 11.0001 28.5329 C 10.9991 30.1319 11.2896 31.7287 11.8835 33.3303 C 12.4655 34.925 13.4315 36.4446 14.7816 37.8892 C 16.1387 39.3221 17.951 40.7223 20.2373 42.0852 C 23.412 43.9777 26.3645 44.986 29.064 45.1076 C 31.7635 45.2292 34.3 44.5818 36.6733 43.1654 C 39.0467 41.749 40.9203 39.9067 42.2869 37.6502 C 44.2301 34.4417 44.7844 31.1571 43.957 27.7847 C 43.1297 24.4122 41.022 21.7162 37.6458 19.7036 C 36.6389 19.1034 35.5276 18.6489 34.338 18.3236 C 33.1484 17.9984 31.8545 17.8189 30.4704 17.7616 L 34.5691 12.7509 L 49.8032 21.8322 L 54.8141 13.5584 L 32.0697 0 L 16.9581 18.1364 Z" fill="#ffffff"/>
	</g>
</svg>