<?xml version="1.0" standalone="no"?>
<!-- Generator: Adobe Fireworks 10, Export SVG Extension by Aaron Beall (http://fireworks.abeall.com) . Version: 0.6.1  -->
<!DOCTYPE svg PUBLIC "-//W3C//DTD SVG 1.1//EN" "http://www.w3.org/Graphics/SVG/1.1/DTD/svg11.dtd">
<svg id="Untitled-page%201" viewBox="0 0 699 84" style="background-color:#ffffff00" version="1.1"
	xmlns="http://www.w3.org/2000/svg" xmlns:xlink="http://www.w3.org/1999/xlink" xml:space="preserve"
	x="0px" y="0px" width="699px" height="84px"
>
	<g id="Calque%201">
		<path d="M 458.125 84 C 460.7012 81.6968 461.8859 77.7228 461.8859 77.7228 C 462.5795 77.6005 462.1577 77.9133 462.1982 78.1446 C 463.4921 76.0087 464.786 73.8728 466.1204 71.9683 C 464.0397 72.3352 461.387 73.5184 459.2778 75.0827 C 459.0872 75.3547 459.1277 75.586 458.9371 75.8582 L 458.3935 75.4771 C 457.128 76.4155 455.9031 77.5854 454.597 78.2927 C 451.9156 80.1545 448.5797 82.1314 445.86 84 L 458.125 84 ZM 105.5151 29.9174 L 105.43 29.9335 L 105.4714 29.9749 L 105.5151 29.9174 ZM 454.017 73.6257 C 453.7858 73.6664 453.7452 73.4351 453.7047 73.2039 C 453.7452 73.4351 454.017 73.6257 454.017 73.6257 ZM 8.2005 67.5858 C 8.16 67.3545 7.8882 67.1639 7.8882 67.1639 C 8.1194 67.1231 8.16 67.3545 8.2005 67.5858 ZM 265.1358 17.2702 L 265.367 17.2294 C 265.4076 17.4608 265.1358 17.2702 265.1358 17.2702 ZM 294.3237 9.7386 L 294.5549 9.6979 C 294.5955 9.9292 294.3643 9.97 294.3237 9.7386 ZM 147.8287 31.9945 C 147.7881 31.7632 147.5163 31.5727 147.5163 31.5727 C 147.7475 31.5319 147.7881 31.7632 147.8287 31.9945 ZM 105.2839 29.9582 L 105.43 29.9335 C 105.3138 29.8083 105.231 29.6557 105.2029 29.4955 C 105.0812 28.8016 105.7058 29.6453 105.6248 29.1827 C 105.503 28.4888 102.3757 28.3249 102.2946 27.8623 C 102.173 27.1683 102.4853 27.5901 102.7164 27.5494 L 101.6294 26.7872 C 101.6294 26.7872 102.173 27.1683 101.4794 27.2906 C 101.0169 27.3721 100.8953 26.6782 100.8547 26.4469 C 97.8654 24.351 91.8299 22.5537 88.3091 21.5052 C 88.2456 21.5959 88.2244 21.6262 88.2289 21.6519 C 88.238 21.7033 88.3497 21.7366 88.4308 22.1992 C 88.512 22.6618 97.3989 28.4871 101.5564 31.8079 C 103.4993 33.373 105.2921 35.4414 107.5067 37.1971 C 107.5472 37.4285 107.9285 36.8843 108.0502 37.5782 C 108.1313 38.0408 107.5067 37.1971 107.6284 37.8911 C 107.7095 38.3537 108.3626 38.0001 108.4842 38.694 C 108.5653 39.1566 108.5248 38.9253 108.3341 39.1974 C 105.2353 37.8361 99.7311 34.9913 99.0376 35.1136 C 98.5751 35.1951 99.5811 35.4947 98.8875 35.617 C 98.425 35.6985 97.6097 35.1269 97.5287 34.6643 C 97.4069 33.9703 95.4763 33.8339 94.4703 33.5343 C 91.8745 32.3229 87.4695 31.6689 85.7294 31.2603 C 87.4005 32.6348 91.0023 34.1459 92.9047 35.4797 C 93.1765 35.6702 93.6389 35.5886 94.1418 35.7385 C 94.1418 35.7385 93.9512 36.0105 93.72 36.0513 C 95.8129 37.113 101.2886 41.1552 102.688 42.3392 L 103.3816 42.2169 C 103.4222 42.4482 103.191 42.489 103.3126 43.1829 C 103.3938 43.6455 104.4402 44.1764 104.7526 44.5983 C 104.7526 44.5983 105.0243 44.7888 104.3307 44.9111 C 103.8683 44.9927 102.7813 44.2305 102.0471 44.1215 C 101.5036 43.7404 100.879 42.8967 100.1854 43.0189 C 99.723 43.1005 100.226 43.2502 100.0353 43.5223 C 99.873 42.5971 94.4906 40.4462 92.8722 40.7316 C 92.6411 40.7724 92.5598 40.3098 92.5598 40.3098 C 92.4382 39.6158 86.9178 39.397 84.2935 39.3828 C 86.3865 40.4445 88.7512 41.6968 90.613 42.7993 C 91.3065 42.6769 92.0813 43.0173 92.856 43.3575 C 92.6654 43.6297 92.2029 43.7112 92.0123 43.9833 C 94.4175 45.4669 97.3664 47.3315 98.3845 49.0598 L 98.0032 49.6038 C 96.7255 49.1138 95.095 47.9705 94.4012 48.0928 C 93.9388 48.1744 94.4419 48.3241 94.2513 48.5962 C 90.325 45.2347 83.4863 44.2944 79.775 43.5181 C 79.775 43.5181 79.5438 43.5589 79.1219 43.8717 L 86.3378 48.3224 C 86.1876 48.8258 87.2341 49.3567 87.587 50.0098 C 88.4429 50.8128 89.3109 53.0444 89.392 53.507 C 89.5137 54.2009 88.9824 55.2485 89.104 55.9424 C 89.1851 56.405 87.007 58.9353 85.9726 59.8331 C 85.129 60.4587 83.0198 62.0231 82.5574 62.1046 C 81.8638 62.2269 79.3895 61.7094 77.9213 61.4913 C 76.1812 61.0828 73.3135 59.6807 73.1107 58.5242 C 72.989 57.8303 71.9304 55.8708 71.8087 55.1768 C 71.7275 54.7142 71.8127 51.1222 72.1008 48.6868 C 71.2571 49.3124 67.2293 52.1689 67.5944 54.2507 C 67.5944 54.2507 67.0225 55.067 66.8845 56.999 C 66.7061 58.6997 65.9962 61.448 65.4771 63.9242 C 65.2053 63.7336 64.7024 63.5839 64.1993 63.4341 C 64.54 62.6586 64.8403 61.6519 64.4874 60.9987 C 63.6761 56.3724 63.3638 55.9506 63.2421 55.2567 C 63.161 54.7941 62.1835 53.2972 62.1024 52.8345 C 62.0619 52.6033 59.5349 50.4257 59.7377 51.5823 C 59.8594 52.2762 60.1595 51.2694 60.2813 51.9633 C 60.3623 52.426 60.0906 52.2354 60.1311 52.4668 C 60.1433 53.8954 59.9648 55.5961 60.2082 56.9839 C 59.4051 57.841 58.4113 58.9701 57.6082 59.8271 C 56.5211 59.0649 55.3936 58.0715 55.3124 57.6088 C 55.1908 56.9149 53.1789 56.3158 52.5543 55.4721 L 52.4828 55.4945 C 52.5047 55.4406 52.5253 55.3069 52.4732 55.0095 C 52.3921 54.5468 50.0273 53.2946 48.709 52.5732 C 45.6792 50.2458 39.9844 47.6732 35.7295 46.5157 C 33.9489 45.8759 31.4341 45.127 30.2781 45.3309 C 33.0768 47.6989 36.419 50.448 39.4489 52.7753 C 40.1547 54.0817 41.0795 53.9186 41.2823 55.0751 C 41.404 55.7691 42.1382 55.8781 42.6411 56.0279 C 42.8034 56.9531 44.4339 58.0964 45.1802 59.634 C 46.47 61.5527 47.6098 63.9749 49.1714 66.0841 C 49.1714 66.0841 49.4432 66.2747 48.7496 66.397 C 48.2871 66.4785 45.8414 64.7636 44.2513 63.8517 C 43.9796 63.6612 42.5924 63.9058 42.5113 63.4432 C 42.3896 62.7492 43.0143 63.5929 42.9331 63.1303 C 42.8115 62.4363 41.0714 62.0278 40.0249 61.4969 C 36.6137 59.7139 32.4278 57.5904 28.9476 56.7733 C 27.5293 56.4403 25.9833 56.2875 24.3929 56.043 C 25.1176 56.3936 26.176 57.8115 27.0291 58.0655 C 29.3127 58.8551 34.6099 64.598 36.8246 66.3536 C 37.218 67.2382 37.9928 67.5785 38.0333 67.8098 C 38.1144 68.2724 37.4897 67.4286 37.6115 68.1226 C 37.7332 68.8165 39.2014 69.0345 39.2014 69.0345 C 39.3232 69.7285 38.6985 68.8848 38.8202 69.5787 C 38.9013 70.0413 39.4043 70.1912 39.4448 70.4224 L 39.0635 70.9666 C 38.7918 70.7761 38.7918 70.7761 38.7107 70.3135 C 38.589 69.6195 36.8489 69.2109 36.1147 69.1019 C 35.2184 68.0677 30.57 66.0258 30.4484 65.3318 C 30.3267 64.6379 30.2172 65.3726 29.9454 65.1821 C 27.4996 63.4672 25.4756 61.4395 22.3483 61.2755 C 21.8453 61.1258 21.3018 60.7447 20.5677 60.6356 C 22.835 64.0513 24.6927 69.2083 27.8443 72.2296 C 27.4225 72.5424 27.1913 72.5833 26.7289 72.6647 C 26.0352 72.787 22.908 72.6231 21.0179 72.718 C 18.1218 72.5133 14.2076 70.5804 11.0966 67.7904 C 10.2408 66.9875 9.1537 66.2253 8.0667 65.4631 C 7.726 66.2386 7.4664 67.4768 7.588 68.1707 C 7.9936 70.4838 10.4395 72.1987 10.9951 74.0084 C 10.9951 74.0084 11.0358 74.2397 10.8451 74.5118 C 7.4745 72.96 -4.6598 65.9107 1.6701 71.122 C 8 76.3333 6.07 84 6.07 84 L 444.73 84 C 450.0691 76.6304 456.761 71.6011 462.398 67.8524 L 462.3037 67.8721 C 461.8413 67.9536 462.2225 67.4094 461.7602 67.491 C 461.0667 67.6133 461.3788 68.0351 461.1882 68.3072 C 460.9164 68.1166 460.8759 67.8854 460.8354 67.6541 C 455.5989 69.0544 450.1434 71.9241 445.1909 74.9436 C 445.1909 74.9436 445.0002 75.2157 444.7285 75.0251 L 434.9045 81.5268 C 434.6328 81.3362 434.864 81.2955 434.7828 80.8329 C 434.6611 80.1389 434.361 81.1457 434.2799 80.6831 C 434.1582 79.9891 434.6611 80.1389 434.8113 79.6355 C 435.0424 79.5948 435.1235 80.0574 435.1641 80.2887 C 435.3142 79.7853 435.1115 78.6287 435.5738 78.5472 C 436.2674 78.4249 435.4237 79.0505 435.8861 78.9691 C 436.5797 78.8467 437.8615 75.2822 439.277 73.8403 C 440.3803 71.9764 441.9866 70.2624 443.4022 68.8204 C 444.6271 67.6506 444.7772 67.1472 444.7772 67.1472 C 445.4708 67.0249 444.6271 67.6506 445.0895 67.5691 C 445.7831 67.4468 448.3425 64.3724 449.7581 62.9304 C 452.0174 60.8627 454.5485 58.9857 457.27 56.8364 L 457.2296 56.6051 C 452.9584 58.0737 449.4214 59.6512 445.4628 61.5416 C 443.6943 62.3304 441.2322 63.2415 440.0477 64.6427 C 439.8571 64.9148 439.3542 64.765 439.3136 64.5338 C 436.5514 66.4516 433.3673 68.6823 430.455 71.1036 C 430.2643 71.3756 431.0797 71.9473 430.386 72.0696 C 429.9236 72.1511 430.3049 71.607 429.8425 71.6885 C 429.1489 71.8109 428.0051 73.4433 427.3926 74.0282 L 427.5143 74.7222 C 427.2831 74.7629 427.2425 74.5316 426.7802 74.6132 C 426.0865 74.7355 426.1677 75.1981 425.9771 75.4702 C 424.2653 73.8643 423.7624 73.7145 423.519 72.3267 C 423.3162 71.1701 423.6732 67.7687 424.4358 66.6803 C 424.4358 66.6803 424.6264 66.4083 423.9327 66.5305 C 423.4704 66.6121 422.8578 67.197 422.2455 67.7819 C 421.4423 68.6389 420.5297 70.2307 420.2296 71.2375 C 420.0389 71.5095 420.0795 71.7408 420.12 71.9722 C 418.7449 73.6455 418.5381 76.5435 418.0189 79.0197 C 417.8282 79.2917 418.2623 80.4076 417.7999 80.4891 C 417.1063 80.6114 417.0657 80.3801 416.6033 80.4616 C 416.5627 80.2303 416.2504 79.8085 416.1693 79.3458 C 416.0476 78.6519 416.3599 79.0738 416.5505 78.8016 C 416.4167 76.6791 416.2302 72.8965 416.1085 72.2026 C 416.0274 71.74 415.5934 70.6242 415.4717 69.9304 C 415.35 69.2363 414.0317 68.515 414.0317 68.515 C 413.9101 67.821 414.5347 68.6647 414.4536 68.2021 C 414.3319 67.5082 413.0948 67.2495 413.0137 66.7867 C 412.892 66.0928 411.3831 65.6435 410.6084 65.3032 C 410.8802 65.4937 411.0018 66.1876 411.3142 66.6095 C 410.7423 67.4258 410.9167 69.7797 411.1194 70.9362 C 411.4156 73.9841 406.7875 78.8541 404.0131 79.3433 C 400.2328 79.533 399.6609 80.3492 399.1985 80.4308 C 398.2737 80.5938 395.3249 78.7292 395.3249 78.7292 C 394.6313 78.8515 394.9436 79.2733 394.753 79.5455 C 394.4812 79.3549 394.25 79.3956 393.9782 79.2051 C 394.1689 78.933 394.5908 78.6202 394.7814 78.3481 C 393.8444 77.0825 393.1913 77.4362 393.0291 76.5109 C 392.9075 75.817 391.7393 74.5922 391.6581 74.1296 C 391.1714 71.3538 394.9964 67.3408 396.6838 66.0894 C 399.2554 64.4436 401.7864 62.5665 403.6644 61.043 C 398.4279 62.4434 392.579 64.4286 388.8919 66.5096 C 387.3546 67.2576 384.3207 68.9849 383.6271 69.1072 C 383.1647 69.1887 382.8929 68.9982 382.39 68.8484 C 382.7712 68.3043 383.3838 67.7194 383.8055 67.4065 C 383.5744 67.4473 383.7244 66.9439 383.9151 66.6718 C 383.9151 66.6718 384.1868 66.8623 384.2274 67.0936 C 386.3366 65.5294 388.5959 63.4617 390.4739 61.9382 C 391.3581 61.5438 393.3578 60.7142 392.9643 59.8298 C 393.2361 60.0204 393.2361 60.0204 393.6984 59.9388 C 394.8545 59.735 396.8826 57.7081 397.5356 57.3545 L 392.9116 58.1699 C 391.3337 58.6865 389.7559 59.2032 388.4093 59.6792 C 385.2942 60.944 381.7572 62.5214 378.6827 64.0175 C 378.4921 64.2896 378.8043 64.7114 378.342 64.793 C 377.6484 64.9152 378.2609 64.3304 377.5673 64.4526 C 377.1048 64.5342 376.9142 64.8063 376.4924 65.1191 L 374.8334 65.1732 C 375.9083 64.5067 377.6646 62.2893 378.5083 61.6636 C 382.3048 58.848 386.292 55.7601 390.1697 53.4072 C 392.7818 51.9927 395.3939 50.5782 398.1968 48.8917 C 395.2318 49.653 392.3073 50.6456 389.3828 51.6382 L 372.2416 59.9071 C 372.1605 59.4445 372.3511 59.1724 372.5417 58.9003 C 375.1417 56.0572 377.7417 53.2141 380.4634 51.0649 C 384.6412 47.705 391.4312 42.9308 395.9903 39.0268 C 386.9857 42.0454 377.6931 47.4995 369.0657 54.0286 C 368.875 54.3007 368.9156 54.532 368.7249 54.804 C 368.7249 54.804 368.4532 54.6135 368.4126 54.3822 C 366.3034 55.9465 363.7319 57.5923 361.2414 59.7007 C 360.9696 59.5102 360.7384 59.5509 360.4667 59.3604 C 362.8801 52.7347 368.9521 45.2255 373.4585 39.6615 L 373.4179 39.4302 C 375.6772 37.3625 382.0089 28.6152 382.0089 28.6152 C 381.9277 28.1525 381.7776 28.6559 381.5059 28.4655 C 382.9337 28.4521 384.2559 25.1189 384.8685 24.5339 C 381.4126 26.5741 377.8068 29.1177 374.4321 31.6205 C 374.2414 31.8926 374.3225 32.3552 374.1318 32.6273 C 373.9006 32.6681 373.6289 32.4775 373.5884 32.2462 C 372.9758 32.8311 372.3633 33.4161 371.2885 34.0826 C 370.4854 34.9395 369.2199 35.8781 368.4167 36.7351 C 368.2261 37.0072 368.7697 37.3882 368.3073 37.4698 C 367.6136 37.5922 367.8043 37.3201 367.7637 37.0887 C 366.5793 38.4899 365.0826 39.4692 363.8983 40.8704 C 363.7076 41.1425 360.1423 43.9174 360.2639 44.6113 C 360.3045 44.8426 359.8421 44.9241 359.3797 45.0057 C 358.9173 45.0872 354.7922 50.107 352.6546 52.8686 L 351.961 52.9909 L 351.7177 51.603 C 351.7177 51.603 351.1052 52.188 350.9835 51.494 C 350.9024 51.0314 351.8271 50.8683 351.746 50.4058 C 351.6122 48.2831 352.1314 45.8069 353.4254 43.671 C 355.21 40.2562 358.463 37.0596 360.4505 34.8013 C 359.9881 34.8829 356.6824 36.4197 356.8447 37.345 L 356.6135 37.3858 C 355.4169 37.3582 353.2793 40.1199 352.2855 41.2489 C 349.9168 44.0513 347.7913 48.2415 346.0472 51.8876 C 345.816 51.9283 345.7065 52.663 345.9783 52.8536 C 345.7876 53.1257 344.8628 53.2887 345.0656 54.4453 C 344.8749 54.7173 344.4125 54.7989 344.4531 55.0302 C 344.4531 55.0302 344.2219 55.071 344.1407 54.6084 C 344.0191 53.9144 344.5505 52.8669 344.6194 51.9009 C 344.9075 49.4655 344.368 45.0297 344.2463 44.3358 C 343.8813 42.254 342.5793 38.9067 340.9893 37.9947 C 340.9609 39.192 341.3259 41.2738 341.4476 41.9678 C 341.5287 42.4304 341.0784 43.9406 341.2002 44.6345 C 341.2813 45.0972 340.681 47.1107 340.1902 48.3895 C 339.5087 49.9405 336.9088 52.7837 335.412 53.7629 C 335.412 53.7629 334.7184 53.8853 334.4467 53.6948 C 334.5034 51.3001 334.0452 47.327 333.9235 46.6331 C 333.4773 44.0886 332.2564 41.2039 329.8228 40.9177 L 330.204 40.3735 C 329.9323 40.1829 329.7416 40.455 329.551 40.7271 C 329.2387 40.3052 328.8858 39.6521 328.0705 39.0804 C 328.1922 39.7744 328.5856 40.6589 328.7073 41.3528 C 328.7885 41.8154 328.4437 46.6455 328.5653 47.3395 C 328.6465 47.8021 326.7401 50.5229 325.7463 51.652 C 324.8621 52.0464 324.0184 52.6721 323.0936 52.8351 C 321.7469 53.3111 318.9726 53.8003 317.4758 54.7797 C 315.3018 53.2553 311.347 51.0911 310.8198 48.084 C 310.7387 47.6215 311.408 44.6418 311.3268 44.1793 C 311.2051 43.4852 311.7487 43.8664 311.9393 43.5943 C 313.2737 41.6896 315.7642 39.5813 318.0235 37.5137 C 319.0579 36.6158 320.1733 36.1807 320.9763 35.3237 L 320.9358 35.0924 C 319.8204 35.5275 318.705 35.9626 317.8207 36.3571 C 314.3933 37.2 310.6251 38.8183 307.441 41.049 C 306.1755 41.9875 304.2853 42.0824 303.1415 43.7149 L 301.9856 43.9188 L 301.4421 43.5376 C 302.2046 42.4493 303.389 41.0481 304.4233 40.1503 C 305.3076 39.756 306.0701 38.6676 306.492 38.3548 C 307.9481 37.1442 309.2542 36.4369 310.4791 35.2671 C 310.4791 35.2671 310.1668 34.8452 310.6292 34.7637 C 311.3228 34.6414 310.4791 35.2671 310.9415 35.1855 C 311.6351 35.0632 313.8943 32.9955 315.5817 31.7441 C 312.3044 32.0836 309.1082 32.8857 306.0336 34.3817 C 303.8433 35.4833 301.2717 37.1292 298.8502 38.2715 C 296.1975 39.4547 296.7816 40.0671 296.088 40.1894 C 295.6255 40.2709 295.1226 40.1212 294.6197 39.9714 C 300.3104 33.0063 309.3718 27.593 315.2776 23.2131 C 309.6193 24.9263 304.4355 27.9865 299.5925 30.2714 C 299.4019 30.5434 299.4424 30.7747 299.2518 31.0468 C 299.2518 31.0468 298.98 30.8562 298.9395 30.6249 C 296.5585 31.9987 293.9464 33.4131 291.7966 34.7461 C 291.606 35.0181 291.6871 35.4808 291.4965 35.7529 C 291.2247 35.5623 291.2247 35.5623 291.103 34.8684 C 290.7786 33.0179 304.606 20.8026 304.606 20.8026 C 304.5248 20.3399 304.3342 20.612 304.0624 20.4214 L 304.6343 19.6052 C 304.9061 19.7958 304.9872 20.2584 305.6808 20.136 C 306.1432 20.0546 306.4839 19.2791 306.4028 18.8164 C 307.0964 18.6942 308.7026 16.9801 308.8932 16.708 C 309.9276 15.8102 311.0024 15.1438 312.0367 14.2459 C 312.0367 14.2459 311.9962 14.0146 312.1868 13.7426 C 309.5747 15.1571 304.4193 17.02 303.0443 18.6932 C 301.8478 18.6658 300.4728 20.3391 299.5884 20.7335 C 295.861 22.5831 291.3424 26.7184 287.3552 29.8061 C 287.1646 30.0782 287.708 30.4592 287.0145 30.5816 C 286.5521 30.6631 287.3958 30.0374 286.7021 30.1597 C 286.2397 30.2413 284.2117 32.2681 282.7556 33.4788 C 282.3337 33.7916 281.49 34.4173 280.6058 34.8118 C 280.5652 34.5804 280.334 34.6212 280.2529 34.1586 C 280.1312 33.4647 282.4879 29.2336 282.4067 28.771 C 282.3661 28.5397 289.9106 17.1938 289.9106 17.1938 C 289.7889 16.4999 289.6794 17.2346 289.4077 17.0441 C 289.5983 16.772 290.0201 16.4592 290.2919 16.6497 L 300.7648 0.2565 C 300.3024 0.3381 299.69 0.923 299.2276 1.0046 C 298.9964 1.0453 297.4307 2.9906 297.4307 2.9906 C 296.7371 3.113 296.9277 2.8408 296.8872 2.6096 C 296.084 3.4666 285.6598 11.9818 285.7816 12.6757 C 285.9032 13.3697 286.0939 13.0976 286.3656 13.2881 L 285.7936 14.1044 L 284.9784 13.5328 C 284.9784 13.5328 280.3503 18.4028 280.4315 18.8654 C 280.5125 19.328 279.7784 19.2191 279.7784 19.2191 L 269.8125 31.7073 C 269.5407 31.5168 269.4596 31.0541 268.9566 30.9043 C 269.7192 29.816 269.123 27.775 268.8796 26.3871 C 268.7579 25.6932 269.2203 25.6116 269.1797 25.3804 C 268.4496 21.2167 268.1373 20.7949 268.0157 20.1009 C 267.9345 19.6383 267.0787 18.8353 266.7258 18.1821 C 266.4946 18.223 266.0728 18.5358 265.9916 18.0732 C 265.87 17.3792 266.4946 18.223 266.4135 17.7603 C 266.4135 17.7603 262.3371 14.9022 260.597 14.4937 C 260.4064 14.7657 260.3658 14.5344 260.447 14.9971 C 260.5686 15.691 264.6815 22.8351 264.7626 23.2977 C 265.006 24.6855 264.9614 28.5088 264.6612 29.5156 C 264.361 30.5224 262.7954 32.4677 262.9171 33.1617 C 262.9981 33.6243 262.1545 34.25 261.4609 34.3723 C 260.9985 34.4539 256.6625 32.8338 254.0665 31.6224 C 251.4707 30.4108 248.7936 28.7367 248.3069 25.961 C 248.2258 25.4983 248.1731 23.8384 248.0515 23.1444 C 247.9703 22.6818 248.599 19.4709 248.4773 18.777 C 248.3962 18.3144 248.1244 18.1238 248.0027 17.4299 C 247.7715 17.4706 247.4998 17.2801 247.4592 17.0488 C 245.8652 20.1915 242.3931 24.8576 242.5148 25.5516 C 242.5959 26.0142 242.746 25.5107 243.0178 25.7014 C 241.0303 27.9595 241.2047 30.3135 239.8823 33.6467 C 238.6858 33.6191 238.483 32.4626 238.4019 31.9999 C 238.3207 31.5374 238.6087 29.1019 238.5276 28.6393 C 238.4059 27.9454 239.8499 25.3061 240.2596 23.5646 C 240.6409 23.0204 241.3629 21.7008 241.7036 20.9253 C 239.9351 21.7141 238.2762 21.7682 236.8605 23.2101 C 232.8207 24.6379 228.7361 29.889 226.6107 34.0792 C 226.6107 34.0792 226.42 34.3513 226.6918 34.5419 C 226.0388 34.8955 225.0855 36.2559 225.1667 36.7185 C 225.2883 37.4125 225.4385 36.9091 225.7102 37.0996 L 224.9476 38.1879 C 224.6759 37.9974 225.0978 37.6846 224.6353 37.7661 C 223.9418 37.8884 223.601 38.6638 223.1792 38.9766 C 223.1792 38.9766 222.948 39.0174 222.8669 38.5548 C 222.7452 37.8609 222.9399 33.5342 222.8588 33.0715 L 221.5203 25.4383 C 221.208 25.0164 221.0863 24.3225 221.0052 23.8599 C 220.0561 21.1657 219.6789 17.6553 217.2046 17.1377 C 217.3953 16.8656 217.6671 17.0562 217.5453 16.3622 C 217.4642 15.8995 216.146 15.1782 215.6025 14.7971 C 215.6146 16.2258 216.0608 18.7701 216.1825 19.4641 C 216.2635 19.9268 216.004 21.1648 216.1257 21.8588 C 216.1379 23.2874 216.1905 24.9473 216.4745 26.5665 C 216.5961 27.2604 216.5272 28.2265 216.4177 28.9612 C 216.3082 29.6959 216.3203 31.1245 216.0607 32.3626 C 215.9512 33.0974 215.2698 34.6483 215.3915 35.3422 C 215.4726 35.8049 214.71 36.8932 214.8317 37.5872 C 214.2598 38.4033 213.266 39.5324 212.7347 40.58 L 212.5035 40.6207 C 212.3128 40.8928 211.7288 40.2804 211.6882 40.0491 C 210.9419 38.5115 210.4268 36.9331 209.4898 35.6675 C 207.7497 35.259 208.6746 35.0959 208.5934 34.6333 C 208.5123 34.1707 208.3216 34.4427 208.2811 34.2114 C 208.0093 34.0209 207.9282 33.5582 207.0845 34.1839 C 207.0439 33.9526 207.2751 33.9119 207.1534 33.2179 C 207.0723 32.7553 205.0605 32.1562 204.0546 31.8567 C 205.0037 34.5508 206.3179 39.3269 206.4395 40.0208 C 206.5207 40.4835 206.2489 40.2929 206.2489 40.2929 C 206.0988 40.7963 206.4517 41.4495 206.3422 42.1842 C 206.1516 42.4562 206.0015 42.9597 205.6202 43.5038 C 205.1172 43.3541 201.6533 39.9109 201.4911 38.9858 C 201.3694 38.2918 200.0511 37.5704 198.9642 36.8083 C 199.3576 37.6927 199.7916 38.8085 199.9133 39.5024 C 199.9944 39.9651 199.5158 42.6726 198.8344 44.2235 C 198.4937 44.999 197.4592 45.8967 196.3844 46.5632 C 195.7598 45.7195 194.9039 44.9166 194.3199 44.3043 L 194.7011 43.76 C 194.6078 41.8688 194.5956 40.4401 194.7336 38.5081 C 194.8026 37.5421 195.4151 36.9572 194.6687 35.4195 C 192.2472 36.5619 190.3409 39.2827 190.1096 39.3235 C 189.6472 39.405 189.838 39.1329 189.7973 38.9016 C 189.6066 39.1737 189.6472 39.405 189.7283 39.8677 C 189.4971 39.9084 189.6878 39.6364 189.2254 39.7179 C 188.3006 39.881 185.875 45.0779 185.3152 47.3229 C 184.7717 46.9418 184.4594 46.5199 183.9565 46.3702 L 184.3377 45.826 C 184.1511 42.0435 185.5789 42.0302 185.2139 39.9483 C 185.0922 39.2544 185.6357 39.6354 185.8669 39.5947 C 186.5889 38.275 187.6922 36.4113 188.7549 34.3162 C 187.5989 34.52 185.1084 36.6284 184.5771 37.676 C 183.774 38.533 182.549 39.7029 181.827 41.0225 C 181.6364 41.2946 181.6769 41.5259 181.7175 41.7572 C 181.0645 42.1108 180.4925 42.9271 179.9612 43.9747 L 179.2676 44.0969 C 179.2676 44.0969 179.2271 43.8656 178.9553 43.6751 L 179.3365 43.1309 L 178.793 42.7499 C 178.9836 42.4777 179.1743 42.2057 179.446 42.3962 L 179.3243 41.7023 C 179.2027 41.0083 180.3871 39.6071 180.306 39.1445 C 180.1843 38.4506 180.0342 38.954 179.7625 38.7635 C 180.1843 38.4506 180.5656 37.9064 180.9468 37.3622 L 180.4033 36.9812 C 180.594 36.7091 181.0563 36.6276 181.247 36.3555 C 182.2286 33.7977 183.8226 30.6552 183.989 27.5258 C 179.73 30.4229 176.0795 36.7897 173.9541 40.98 C 170.2833 40.435 168.2593 38.4073 167.8131 35.8629 C 167.4886 34.0123 167.7077 32.543 169.0016 30.407 C 167.6144 30.6517 165.5742 31.2499 164.8806 31.3722 C 163.031 31.6984 156.7561 38.0511 156.3749 38.5952 C 155.5717 39.4522 154.4685 41.3161 153.7464 42.6357 C 153.3246 42.9485 153.0529 42.758 152.4404 43.343 L 151.6251 42.7713 L 152.197 41.9551 C 150.7166 40.3084 148.5709 37.5867 148.1653 35.2737 C 148.0436 34.5797 148.0598 31.9537 148.2789 30.4843 C 148.5101 30.4435 148.3194 30.7156 149.0131 30.5933 C 149.4755 30.5117 149.5038 29.3145 149.8851 28.7703 C 150.6882 27.9133 151.8036 27.4781 152.6473 26.8524 C 151.5319 27.2875 149.9135 27.5729 149.2199 27.6952 C 145.9832 28.266 138.1994 34.1695 137.737 34.251 C 136.8122 34.4141 134.1514 30.114 134.1108 29.8826 C 133.9892 29.1887 133.8148 26.8348 133.7336 26.3723 C 133.6119 25.6783 135.0032 21.379 136.0254 19.0526 C 135.9848 18.8213 136.4473 18.7398 136.6378 18.4677 C 136.5974 18.2363 136.366 18.2772 136.285 17.8145 C 136.2444 17.5832 137.6194 15.91 138.2603 14.1277 C 137.4166 14.7534 136.5324 15.1478 135.8794 15.5013 C 135.6888 15.7734 136.2322 16.1545 135.5386 16.2769 C 135.0762 16.3584 135.92 15.7327 135.2263 15.855 C 134.7639 15.9365 135.0762 16.3584 134.9667 17.0931 C 134.7355 17.1339 134.4638 16.9433 134.0014 17.0249 C 132.6141 17.2695 130.6794 21.1876 130.8011 21.8815 C 130.8822 22.3442 130.3103 23.1605 130.2007 23.8951 C 129.9534 26.5619 129.8276 29.9226 129.6207 32.8206 C 125.9662 29.6496 123.3743 24.3835 119.8536 23.3351 L 120.2349 22.7909 C 119.6508 22.1785 118.8761 21.8383 118.795 21.3756 C 118.6733 20.6817 117.6674 20.3821 117.3551 19.9603 L 116.6614 20.0826 C 116.6614 20.0826 116.5114 20.586 116.3897 19.8921 C 116.3086 19.4294 116.5803 19.62 116.8115 19.5792 C 116.2274 18.9668 114.244 17.1703 113.9317 16.7485 C 113.6599 16.558 113.4693 16.83 113.1976 16.6395 C 112.9258 16.449 112.8447 15.9864 112.8041 15.7551 C 107.7908 11.6313 103.0491 7.6982 97.979 5.9691 C 98.2913 6.391 98.6442 7.0441 99.1472 7.1939 C 99.1472 7.1939 99.3784 7.1532 99.6501 7.3437 L 99.2688 7.8878 L 111.0965 23.687 C 111.9523 24.49 112.8081 25.2929 113.4327 26.1366 C 114.4103 27.6335 116.1341 30.668 116.2558 31.3619 C 116.3369 31.8246 117.574 32.0834 117.6957 32.7773 C 117.7768 33.2399 117.1927 32.6275 117.2739 33.0901 C 117.3955 33.7841 118.2514 34.587 118.373 35.2809 L 118.6976 37.1314 C 118.6976 37.1314 118.9693 37.322 118.2758 37.4443 C 117.8133 37.5258 114.5116 35.008 112.6498 33.9055 C 112.3781 33.715 111.8347 33.3339 111.2505 32.7215 C 111.291 32.9528 111.3317 33.1841 111.141 33.4562 C 110.4758 32.3812 106.9023 29.6729 106.4399 29.7544 C 105.9776 29.8359 106.9835 30.1355 106.2899 30.2578 C 106.0061 30.3077 105.6907 30.1852 105.4714 29.9749 C 105.3173 30.1559 105.2839 29.9582 105.2839 29.9582 ZM 103.191 28.8965 L 103.8846 28.7742 C 103.9252 29.0055 103.4628 29.087 103.5033 29.3184 C 103.4628 29.087 103.191 28.8965 103.191 28.8965 ZM 90.9456 22.9481 L 90.2521 23.0704 C 90.4426 22.7983 90.7145 22.9888 90.9456 22.9481 ZM 108.2247 12.7471 C 107.9936 12.7879 107.953 12.5566 107.9124 12.3253 C 107.953 12.5566 108.2247 12.7471 108.2247 12.7471 ZM 106.363 11.6447 L 105.8195 11.2635 C 106.0507 11.2228 106.2819 11.1821 106.363 11.6447 ZM 24.0397 55.9695 L 23.9858 55.9775 L 24.3929 56.043 C 24.2631 55.9802 24.1451 55.9509 24.0397 55.9695 ZM 23.9858 55.9775 L 23.5201 55.8981 C 23.6215 55.9454 23.7365 56.0106 23.9858 55.9775 ZM 23.3055 55.8605 L 23.5201 55.8981 C 23.4538 55.8672 23.3933 55.845 23.3055 55.8605 ZM 462.398 67.8524 C 462.718 67.7739 462.8478 67.6153 462.9708 67.4729 L 462.398 67.8524 ZM 463.3785 67.2056 C 463.1756 67.2413 463.0757 67.3513 462.9708 67.4729 L 463.3785 67.2056 ZM 688.684 59.4296 L 688.9152 59.3889 C 688.9558 59.6201 688.684 59.4296 688.684 59.4296 ZM 610.8146 69.3456 C 610.7739 69.1143 610.5022 68.9237 610.5022 68.9237 C 610.7334 68.883 610.7739 69.1143 610.8146 69.3456 ZM 527.4614 56.1438 C 527.23 56.1845 527.1896 55.9532 527.1489 55.7219 C 527.1896 55.9532 527.4614 56.1438 527.4614 56.1438 ZM 527.5749 51.3544 L 527.9967 51.0416 C 528.0373 51.2729 527.8061 51.3136 527.5749 51.3544 ZM 686.3199 84 L 686.307 83.9337 C 685.9824 82.0831 686.5544 81.267 688.3918 79.5121 L 688.1606 79.5529 C 690.2699 77.9886 692.3792 76.4244 694.6505 75.7854 C 694.6505 75.7854 694.4193 75.8261 694.1475 75.6356 C 695.7255 75.119 697.2627 74.3708 698.7998 73.6229 C 697.9156 74.0173 695.4415 73.4997 694.5288 75.0914 C 694.2166 74.6696 693.5229 74.7919 692.8293 74.9142 C 689.3613 75.5258 684.6685 77.3071 681.1313 78.8846 L 678.5477 79.1019 C 679.1602 78.5169 679.9633 77.6599 680.6163 77.3063 C 682.3442 76.2862 684.494 74.9532 686.0313 74.2053 C 688.684 73.0221 691.7585 71.5261 694.2206 70.6149 C 692.371 70.9411 689.3248 71.2398 688.8624 71.3214 C 686.0881 71.8106 682.7012 72.8848 680.2391 73.7958 C 678.1989 74.394 674.8931 75.9308 674.4307 76.0124 C 673.7372 76.1348 673.2748 76.2162 672.7719 76.0665 C 673.1531 75.5223 674.1467 74.3932 674.6091 74.3117 C 675.3029 74.1893 674.4591 74.8151 674.9215 74.7336 C 675.6151 74.6112 676.9901 72.938 678.0651 72.2715 C 683.6705 68.8984 689.479 66.6818 695.2467 64.2339 C 690.1199 64.8996 684.5022 66.844 679.1156 68.7477 C 677.5377 69.2644 675.3069 70.1348 673.3071 70.9644 C 673.076 71.0051 673.1976 71.699 672.7352 71.7806 C 672.5042 71.8213 672.423 71.3587 672.423 71.3587 C 672.3013 70.6648 671.3075 71.7938 670.8046 71.6441 C 672.3702 69.6988 675.826 67.6586 677.7853 66.5977 L 693.949 56.832 C 690.2903 57.7156 686.5221 59.3339 683.1353 60.4081 L 662.4976 70.4858 C 662.307 70.7579 661.8851 71.0707 661.4633 71.3836 C 661.3492 71.3037 661.2902 71.298 661.2511 71.267 C 661.197 71.2243 661.1812 71.1332 661.1105 70.7304 C 660.8265 69.1112 665.7668 64.6631 666.7606 63.534 C 668.7887 61.5071 670.8574 59.7115 672.8854 57.6848 C 673.9603 57.0182 675.1852 55.8483 676.2603 55.1819 L 686.9034 45.1973 C 684.2507 46.3804 681.598 47.5636 678.7546 49.0189 C 678.7546 49.0189 678.9858 48.9781 679.2576 49.1686 C 679.067 49.4407 678.7953 49.2502 678.3328 49.3317 C 677.6392 49.454 674.5768 52.3786 673.8833 52.501 C 673.4209 52.5825 674.2645 51.9568 673.5709 52.0792 C 673.1085 52.1607 671.8837 53.3306 671.2306 53.6841 C 671.0399 53.9562 671.0804 54.1875 670.8898 54.4596 C 670.8898 54.4596 670.618 54.2691 670.5775 54.0378 C 670.1556 54.3506 668.9591 54.3232 669.0808 55.0171 C 669.162 55.4797 669.3119 54.9763 669.5837 55.1669 C 666.1969 56.241 661.7189 60.6076 658.7255 62.5663 C 656.9976 63.5864 655.2007 65.5725 653.0916 67.1368 C 652.9009 67.4088 652.0573 68.0345 651.323 67.9255 C 651.5421 66.4561 652.8522 61.6943 652.4872 59.6125 C 651.96 56.6054 648.2365 54.4004 646.4963 53.9919 C 646.902 56.3051 648.2849 60.115 648.3662 60.5776 C 648.5284 61.5029 648.865 64.782 647.559 65.4893 L 648.1024 65.8703 C 646.6464 67.081 644.4681 69.6112 644.0057 69.6927 C 643.0811 69.8558 642.4563 69.0121 641.2192 68.7534 C 641.1786 68.522 640.335 69.1478 640.0632 68.9572 L 640.4445 68.413 C 640.2134 68.4538 640.1322 67.9912 639.6698 68.0727 C 639.2073 68.1543 638.4327 67.8139 638.5138 68.2766 C 638.4327 67.8139 638.7045 68.0045 638.9355 67.9637 C 637.1145 67.0926 633.5532 65.8128 633.1069 63.2684 C 632.8636 61.8806 634.2954 57.8126 634.6361 57.0372 L 634.121 55.4587 C 632.1742 57.9482 628.6088 60.7231 627.1243 63.1311 C 626.171 64.4915 624.9056 65.43 624.1146 67.7157 L 622.9586 67.9196 C 622.9181 67.6882 622.6868 67.729 622.6057 67.2664 C 622.4841 66.5725 623.2061 65.2528 623.4656 64.0147 C 624.8 62.1102 626.3658 60.1648 627.9315 58.2195 C 626.5442 58.4641 624.504 59.0623 624.0415 59.1439 C 618.9552 60.0408 609.8491 69.2774 607.59 71.345 C 607.59 71.345 607.3586 71.3858 607.2776 70.9232 C 607.1558 70.2292 608.2632 64.3108 608.1821 63.8482 C 608.0605 63.1543 608.2836 57.6302 608.1619 56.9363 C 607.8374 55.0858 606.3447 52.0106 605.3794 51.9423 C 604.9697 53.6838 603.9597 57.4388 604.0814 58.1328 C 604.1626 58.5954 604.3126 58.092 604.5845 58.2826 C 604.1626 58.5954 603.6718 59.8743 603.7935 60.5682 C 603.8745 61.0308 603.4528 61.3437 603.7245 61.5342 L 603.7649 61.7655 C 603.043 63.0851 602.6617 63.6293 602.824 64.5546 C 602.1304 64.6769 600.3458 68.0916 600.5079 69.0169 C 600.5891 69.4795 598.208 70.8532 597.1738 71.751 C 596.5491 70.9073 596.7804 70.8665 596.5085 70.676 C 595.6001 68.2131 594.6914 65.7502 591.6333 64.6203 C 591.1018 65.6678 591.6047 65.8176 591.6858 66.2803 C 591.8076 66.9741 591.5359 66.7836 591.5359 66.7836 C 591.2073 68.9877 592.3876 71.6412 590.1283 73.7088 C 588.2261 72.375 587.5486 69.8714 585.2933 67.8844 C 585.334 68.1157 585.6057 68.3062 585.7274 69.0002 C 585.8491 69.6941 585.2893 71.939 584.2955 73.0681 L 584.8391 73.4492 C 584.6484 73.7213 584.186 73.8028 583.6831 73.653 C 583.4926 73.9251 583.7642 74.1157 583.8049 74.3469 C 583.3423 74.4285 582.2676 75.095 581.4238 75.7206 C 580.5679 74.9177 579.9027 73.8427 579.781 73.1487 C 579.4565 71.2983 582.0566 68.4551 582.0039 66.7952 C 578.6171 67.8693 574.6583 69.7597 572.2206 73.5281 C 572.2206 73.5281 572.0298 73.8002 572.3423 74.2221 C 572.111 74.2628 571.8799 74.3036 571.608 74.1131 L 570.6549 75.4735 C 570.3831 75.283 570.3425 75.0516 570.2614 74.589 C 569.7747 71.8132 574.3743 68.1406 576.3213 65.6511 C 571.5878 67.2012 568.6065 70.5884 566.8097 72.5746 L 566.116 72.6968 L 565.5725 72.3158 C 565.9944 72.003 566.3351 71.2275 566.4851 70.7241 C 566.4447 70.4928 566.9071 70.4113 567.0977 70.1392 C 567.0165 69.6765 566.8542 68.7513 567.3166 68.6697 C 568.0103 68.5474 567.5885 68.8603 567.629 69.0916 C 568.0103 68.5474 567.6168 67.663 568.0792 67.5814 C 568.7729 67.459 568.351 67.7719 568.3916 68.0033 L 573.3481 60.9292 L 572.8452 60.7794 C 569.499 62.0848 565.8647 65.8257 562.3399 68.832 C 561.9179 69.1448 562.0397 69.8388 561.8896 70.3422 C 561.6583 70.3829 561.4272 70.4237 561.1555 70.2332 C 561.346 69.9611 561.5773 69.9203 561.5367 69.689 C 559.9183 69.9744 556.8884 67.6471 556.7262 66.7219 C 556.4828 65.334 557.2048 64.0143 557.7361 62.9667 C 557.9268 62.6947 558.5392 62.1097 559.1517 61.5248 C 558.4177 61.4158 557.2616 61.6197 556.7991 61.7012 C 556.1057 61.8235 553.7936 62.2312 552.4875 62.9385 C 552.0657 63.2513 552.1873 63.9453 551.4938 64.0676 C 551.0314 64.1491 551.6438 63.5641 551.1815 63.6457 C 550.4879 63.768 546.1884 66.4339 546.31 67.1279 C 546.3912 67.5905 546.1194 67.4 545.8882 67.4407 C 544.6917 67.4132 543.7789 69.0049 542.5946 70.4061 C 541.8199 70.0658 538.9685 66.0378 538.9685 66.0378 C 538.8468 65.3439 538.8346 63.9152 538.7535 63.4525 C 538.6317 62.7587 540.4286 60.7725 540.3475 60.3099 C 540.2258 59.616 543.1099 58.392 544.647 57.644 C 542.5662 58.0109 538.9077 58.8945 538.4453 58.9761 C 537.7517 59.0984 536.2144 59.8464 535.2896 60.0095 C 535.2896 60.0095 535.3301 60.2408 535.0989 60.2816 C 534.1742 60.4447 533.5211 60.7983 532.4462 61.4648 C 531.7932 61.8184 530.4466 62.2943 529.3718 62.9608 C 527.9318 61.5454 527.8101 60.8515 527.5261 59.2323 C 527.4044 58.5384 527.6925 56.103 527.6113 55.6403 C 527.4897 54.9464 529.5177 52.9196 530.6616 51.287 C 530.6616 51.287 530.471 51.5591 530.3898 51.0965 C 530.3492 50.8652 533.4522 48.1718 533.9835 47.1243 C 533.1399 47.75 531.9839 47.9539 531.2902 48.0762 C 530.8278 48.1577 530.256 48.9739 529.3312 49.137 C 525.5224 50.524 523.8026 57.0273 522.1396 61.136 C 521.515 60.2924 520.6187 59.2581 520.5374 58.7955 C 520.4158 58.1016 519.3287 57.3394 518.9758 56.6862 C 517.7266 54.9988 516.9397 53.2298 514.3033 51.787 C 514.3033 51.787 514.4939 51.515 514.7251 51.4742 C 514.4128 51.0523 513.5974 50.4807 513.5163 50.0181 C 513.3541 49.0928 511.8452 48.6435 511.1111 48.5345 C 511.3018 48.2624 511.5329 48.2216 511.7641 48.1808 C 509.5089 46.194 504.8079 42.4921 504.7267 42.0294 C 504.6051 41.3355 501.1939 39.5524 499.101 38.4907 C 499.3038 39.6472 500.5936 41.5659 500.7153 42.2599 C 500.7964 42.7225 501.6117 43.2942 501.924 43.716 C 501.9645 43.9473 509.16 55.0786 509.5251 57.1604 C 509.6063 57.623 511.614 62.2767 511.7357 62.9707 C 511.8168 63.4333 511.6262 63.7054 511.4761 64.2087 C 509.886 63.2968 508.2961 62.3849 506.9373 61.4322 C 500.5652 56.3558 493.8522 52.0549 486.0361 49.6177 C 488.6848 52.4891 493.5359 55.6876 495.7911 57.6746 C 496.6874 58.7088 501.5508 63.3359 501.7941 64.7238 C 501.9158 65.4177 501.7252 65.6898 501.3033 66.0026 C 501.0316 65.8121 501.2222 65.54 501.1411 65.0774 C 501.0193 64.3835 500.2852 64.2745 499.0482 64.0157 C 494.2782 61.2798 487.0745 58.2578 481.8947 57.2634 C 483.5254 58.4067 485.6589 59.6997 487.7113 60.5301 C 490.2787 62.939 495.3205 65.8654 496.9632 68.4372 C 496.9632 68.4372 497.0038 68.6685 496.8537 69.1719 C 495.2637 68.2599 485.1924 63.8359 483.3428 64.162 C 482.8804 64.2436 482.921 64.4749 482.7303 64.7469 C 482.4586 64.5564 482.1462 64.1346 481.6432 63.9848 C 481.6838 64.2161 481.4526 64.2569 481.5743 64.9508 C 481.6555 65.4135 484.6733 66.3121 485.8414 67.5369 C 487.4719 68.6801 488.6807 70.1362 490.08 71.3203 L 490.011 72.2863 C 489.4675 71.9052 487.8775 70.9932 486.2997 71.5099 C 486.2592 71.2786 486.4498 71.0065 486.681 70.9658 C 482.1827 68.4205 478.009 67.7256 473.5229 66.609 C 474.0259 66.7589 478.8486 71.1546 479.2136 73.2365 C 479.3354 73.9304 479.0067 76.1345 478.516 77.4134 C 477.7534 78.5016 476.0661 79.7531 474.76 80.4603 C 472.8009 81.5212 469.6452 82.5546 468.1891 83.7652 L 466.855 84 L 686.3199 84 Z" fill="#86b333"/>
	</g>
</svg>