<?xml version="1.0" standalone="no"?>
<!-- Generator: Adobe Fireworks 10, Export SVG Extension by Aaron Beall (http://fireworks.abeall.com) . Version: 0.6.1  -->
<!DOCTYPE svg PUBLIC "-//W3C//DTD SVG 1.1//EN" "http://www.w3.org/Graphics/SVG/1.1/DTD/svg11.dtd">
<svg id="Untitled-page%201" viewBox="0 0 1458 276" style="background-color:#ffffff00" version="1.1"
	xmlns="http://www.w3.org/2000/svg" xmlns:xlink="http://www.w3.org/1999/xlink" xml:space="preserve"
	x="0px" y="0px" width="1458px" height="276px"
>
	<g id="Calque%201">
		<path d="M 910.5 158.457 C 842.1807 148.8878 774.7549 111.7191 710.5067 84.2987 C 667.6904 66.0249 623.7771 58.7376 579.6536 58.962 C 578.7287 58.9667 577.8032 58.9807 576.8781 59.003 C 531.4055 58.3062 486.1277 65.4712 442.0143 84.2987 C 377.766 111.7191 310.3402 148.8878 242.0209 158.457 C 242.0209 158.457 217.8709 163.2966 155.0856 164.6664 L 0 164.54 L 0 276 L 1458 276 L 1458 164.345 L 997.4353 164.6664 C 934.65 163.2966 910.5 158.457 910.5 158.457 Z" fill="#b7f152"/>
		<g>
			<path d="M 464.5424 82.9473 L 462.3305 82.9473 L 462.3305 68.137 L 464.5424 68.137 L 464.5424 82.9473 Z" fill="#b2692e"/>
			<path d="M 452.5894 68.137 L 474.2825 68.137 L 464.064 12.1886 L 452.5894 68.137 Z" fill="#94c73a"/>
			<path d="M 566.8748 68.137 L 564.7583 68.137 L 564.7583 53.9679 L 566.8748 53.9679 L 566.8748 68.137 Z" fill="#b2692e"/>
			<path d="M 555.4391 53.9679 L 576.1929 53.9679 L 566.4167 0.4408 L 555.4391 53.9679 Z" fill="#94c73a"/>
			<path d="M 524.1915 68.978 L 522.4161 68.978 L 522.4161 54.9725 L 524.1915 54.9725 L 524.1915 68.978 Z" fill="#b2692e"/>
			<path d="M 514.5984 54.9725 L 532.0081 54.9725 L 523.8076 2.0611 L 514.5984 54.9725 Z" fill="#94c73a"/>
			<path d="M 533.4512 68.978 L 532.0092 68.978 L 532.0092 59.3192 L 533.4512 59.3192 L 533.4512 68.978 Z" fill="#b2692e"/>
			<path d="M 525.6561 59.3192 L 539.8034 59.3192 L 533.1394 22.8305 L 525.6561 59.3192 Z" fill="#94c73a"/>
		</g>
	</g>
</svg>